<?xml version="1.0" encoding="utf-8"?>
<COLLADA xmlns="http://www.collada.org/2005/11/COLLADASchema" version="1.4.1" xmlns:xsi="http://www.w3.org/2001/XMLSchema-instance">
  <asset>
    <contributor>
      <author>Blender User</author>
      <authoring_tool>Blender 4.2.0 commit date:2024-07-16, commit time:06:20, hash:a51f293548ad</authoring_tool>
    </contributor>
    <created>2024-07-18T17:24:53</created>
    <modified>2024-07-18T17:24:53</modified>
    <unit name="meter" meter="1"/>
    <up_axis>Z_UP</up_axis>
  </asset>
  <library_effects>
    <effect id="R3MPerception-Metallic-effect">
      <profile_COMMON>
        <technique sid="common">
          <lambert>
            <emission>
              <color sid="emission">0 0 0 1</color>
            </emission>
            <diffuse>
              <color sid="diffuse">0.3 0.3 0.3 1</color>
            </diffuse>
            <reflectivity>
              <float sid="specular">1</float>
            </reflectivity>
            <index_of_refraction>
              <float sid="ior">1.45</float>
            </index_of_refraction>
          </lambert>
        </technique>
      </profile_COMMON>
    </effect>
  </library_effects>
  <library_images/>
  <library_materials>
    <material id="R3MPerception-Metallic-material" name="R3MPerception-Metallic">
      <instance_effect url="#R3MPerception-Metallic-effect"/>
    </material>
  </library_materials>
  <library_geometries>
    <geometry id="shape0_019-mesh" name="shape0.019">
      <mesh>
        <source id="shape0_019-mesh-positions">
          <float_array id="shape0_019-mesh-positions-array" count="420">4.5 7.4 -60 4.5 7.4 60 3.89754 6.15864 60 3.89754 6.15864 -60 3.39897 4.87204 60 3.39897 4.87204 -60 3.00767 3.54886 60 3.00767 3.54886 -60 2.72627 2.19803 -60 2.72627 2.19803 60 2.55666 0.828664 -60 2.55666 0.828664 60 2.5 -0.55 60 2.5 -0.55 -60 2.55666 -1.92866 -60 2.55666 -1.92866 60 2.72627 -3.29803 -60 2.72627 -3.29803 60 3.00767 -4.64886 60 3.00767 -4.64886 -60 3.39897 -5.97204 -60 3.39897 -5.97204 60 3.89754 -7.25864 -60 3.89754 -7.25864 60 4.5 -8.5 -60 4.5 -8.5 60 -4.5 -8.5 60 -4.5 -8.5 -60 4.5 -8.5 -60 4.5 -8.5 60 -4.5 -8.5 -60 -4.5 -8.5 60 -3.89754 -7.25864 60 -3.89754 -7.25864 -60 -3.39897 -5.97204 60 -3.39897 -5.97204 -60 -3.00767 -4.64886 60 -3.00767 -4.64886 -60 -2.72627 -3.29803 -60 -2.72627 -3.29803 60 -2.55666 -1.92866 -60 -2.55666 -1.92866 60 -2.5 -0.55 60 -2.5 -0.55 -60 -2.55666 0.828664 -60 -2.55666 0.828664 60 -2.72627 2.19803 -60 -2.72627 2.19803 60 -3.00767 3.54886 60 -3.00767 3.54886 -60 -3.39897 4.87204 -60 -3.39897 4.87204 60 -3.89754 6.15864 -60 -3.89754 6.15864 60 -4.5 7.4 60 -4.5 7.4 -60 4.5 7.4 60 4.5 7.4 -60 3.43276 7.87603 -60 3.43276 7.87603 60 2.31625 8.221011 60 2.31625 8.221011 -60 1.16649 8.43 60 1.16649 8.43 -60 0 8.5 60 0 8.5 -60 -1.16649 8.43 60 -1.16649 8.43 -60 -2.31625 8.221011 60 -2.31625 8.221011 -60 -3.43276 7.87603 60 -3.43276 7.87603 -60 -4.5 7.4 60 -4.5 7.4 -60 -2.31625 8.221011 -60 -3.39897 4.87204 -60 -3.89754 6.15864 -60 -1.16649 8.43 -60 -3.43276 7.87603 -60 -4.5 7.4 -60 -4.5 -8.5 -60 3.89754 -7.25864 -60 4.5 -8.5 -60 -3.89754 -7.25864 -60 3.39897 -5.97204 -60 -3.39897 -5.97204 -60 3.00767 -4.64886 -60 -3.00767 -4.64886 -60 2.72627 -3.29803 -60 -2.72627 -3.29803 -60 2.55666 -1.92866 -60 -2.55666 -1.92866 -60 2.5 -0.55 -60 -2.5 -0.55 -60 2.55666 0.828664 -60 -2.55666 0.828664 -60 2.72627 2.19803 -60 3.43276 7.87603 -60 4.5 7.4 -60 3.89754 6.15864 -60 -2.72627 2.19803 -60 3.00767 3.54886 -60 2.31625 8.221011 -60 3.39897 4.87204 -60 -3.00767 3.54886 -60 1.16649 8.43 -60 0 8.5 -60 -3.89754 6.15864 60 -3.39897 4.87204 60 -2.31625 8.221011 60 -1.16649 8.43 60 -3.43276 7.87603 60 -4.5 7.4 60 4.5 -8.5 60 3.89754 -7.25864 60 -4.5 -8.5 60 3.39897 -5.97204 60 -3.89754 -7.25864 60 3.00767 -4.64886 60 -3.39897 -5.97204 60 2.72627 -3.29803 60 -3.00767 -4.64886 60 2.55666 -1.92866 60 -2.72627 -3.29803 60 2.5 -0.55 60 -2.55666 -1.92866 60 2.55666 0.828664 60 -2.5 -0.55 60 2.72627 2.19803 60 -2.55666 0.828664 60 3.89754 6.15864 60 4.5 7.4 60 3.43276 7.87603 60 3.00767 3.54886 60 -2.72627 2.19803 60 3.39897 4.87204 60 2.31625 8.221011 60 -3.00767 3.54886 60 1.16649 8.43 60 0 8.5 60</float_array>
          <technique_common>
            <accessor source="#shape0_019-mesh-positions-array" count="140" stride="3">
              <param name="X" type="float"/>
              <param name="Y" type="float"/>
              <param name="Z" type="float"/>
            </accessor>
          </technique_common>
        </source>
        <source id="shape0_019-mesh-normals">
          <float_array id="shape0_019-mesh-normals-array" count="204">0.8996467 -0.4366185 0 0.9324386 -0.3613288 0 0.8996465 -0.4366192 0 0.9589468 -0.283586 0 0.9324384 -0.3613291 0 0.9589467 -0.2835867 0 0.9789838 -0.2039384 0 0.9789838 -0.203938 0 0.9924165 -0.122921 0 0.9991567 -0.04106301 0 0.9991566 0.04106312 0 0.9924165 0.1229206 0 0.9789838 0.2039384 0 0.9789839 0.203938 0 0.9589469 0.2835861 0 0.9589467 0.2835868 0 0.9324386 0.3613288 0 0.9324384 0.3613291 0 0.8996467 0.4366185 0 0.8996465 0.4366192 0 0 -1 0 -0.8996467 0.4366185 0 -0.9324386 0.3613288 0 -0.8996465 0.4366192 0 -0.9589469 0.2835861 0 -0.9324384 0.3613291 0 -0.9589467 0.2835868 0 -0.9789838 0.2039384 0 -0.9789839 0.203938 0 -0.9924165 0.1229206 0 -0.9991566 0.04106312 0 -0.9991567 -0.04106301 0 -0.9924165 -0.122921 0 -0.9789838 -0.2039384 0 -0.9789838 -0.203938 0 -0.9589468 -0.283586 0 -0.9589467 -0.2835867 0 -0.9324386 -0.3613288 0 -0.8996465 -0.4366192 0 -0.9324384 -0.3613291 0 -0.8996467 -0.4366185 0 0.4073536 0.9132705 0 0.2952102 0.9554324 0 0.2952103 0.9554323 0 0.1788372 0.9838787 0 0.1788373 0.9838787 0 0.05990183 0.9982043 0 -0.05990183 0.9982043 0 -0.1788373 0.9838787 0 -0.1788372 0.9838787 0 -0.2952103 0.9554323 0 -0.2952102 0.9554324 0 -0.4073536 0.9132705 0 -4.9821e-6 0 -1 8.42042e-6 0 -1 0 0 -1 4.9821e-6 0 -1 -8.42043e-6 0 -1 2.57877e-6 0 -1 -2.57877e-6 0 -1 0 0 1 6.31532e-6 0 1 2.367e-6 0 1 -2.367e-6 0 1 4.9821e-6 0 1 -6.31532e-6 0 1 1.91019e-6 0 1 -1.91019e-6 0 1</float_array>
          <technique_common>
            <accessor source="#shape0_019-mesh-normals-array" count="68" stride="3">
              <param name="X" type="float"/>
              <param name="Y" type="float"/>
              <param name="Z" type="float"/>
            </accessor>
          </technique_common>
        </source>
        <vertices id="shape0_019-mesh-vertices">
          <input semantic="POSITION" source="#shape0_019-mesh-positions"/>
        </vertices>
        <triangles material="R3MPerception-Metallic-material" count="128">
          <input semantic="VERTEX" source="#shape0_019-mesh-vertices" offset="0"/>
          <input semantic="NORMAL" source="#shape0_019-mesh-normals" offset="1"/>
          <p>0 0 1 0 2 0 3 1 2 1 4 1 3 2 0 2 2 2 5 3 4 3 6 3 5 4 3 4 4 4 7 5 5 5 6 5 8 6 6 6 9 6 8 7 7 7 6 7 10 8 9 8 11 8 10 9 11 9 12 9 10 8 8 8 9 8 13 9 10 9 12 9 14 10 12 10 15 10 14 10 13 10 12 10 16 11 15 11 17 11 16 12 17 12 18 12 16 11 14 11 15 11 19 13 16 13 18 13 20 14 18 14 21 14 20 15 19 15 18 15 22 16 21 16 23 16 22 17 20 17 21 17 24 18 23 18 25 18 24 19 22 19 23 19 26 20 27 20 28 20 29 20 26 20 28 20 30 21 31 21 32 21 33 22 32 22 34 22 33 23 30 23 32 23 35 24 34 24 36 24 35 25 33 25 34 25 37 26 35 26 36 26 38 27 36 27 39 27 38 28 37 28 36 28 40 29 39 29 41 29 40 30 41 30 42 30 40 29 38 29 39 29 43 30 40 30 42 30 44 31 42 31 45 31 44 31 43 31 42 31 46 32 45 32 47 32 46 33 47 33 48 33 46 32 44 32 45 32 49 34 46 34 48 34 50 35 48 35 51 35 50 36 49 36 48 36 52 37 51 37 53 37 52 38 53 38 54 38 52 39 50 39 51 39 55 40 52 40 54 40 56 41 57 41 58 41 59 41 56 41 58 41 60 42 59 42 61 42 59 43 58 43 61 43 62 44 60 44 63 44 60 45 61 45 63 45 64 46 62 46 65 46 62 46 63 46 65 46 66 47 64 47 67 47 64 47 65 47 67 47 68 48 66 48 69 48 66 49 67 49 69 49 70 50 68 50 71 50 68 51 69 51 71 51 72 52 70 52 73 52 70 52 71 52 73 52 74 53 75 53 76 53 74 54 77 54 75 54 78 55 74 55 76 55 79 55 78 55 76 55 80 55 81 55 82 55 83 55 84 55 81 55 83 55 81 55 80 55 85 55 86 55 84 55 85 55 84 55 83 55 87 55 88 55 86 55 87 55 86 55 85 55 89 55 90 55 88 55 89 55 88 55 87 55 91 55 92 55 90 55 91 55 90 55 89 55 93 55 94 55 92 55 93 55 92 55 91 55 95 55 96 55 94 55 95 55 94 55 93 55 97 55 98 55 99 55 100 55 101 55 96 55 100 55 96 55 95 55 102 56 99 56 103 56 102 55 97 55 99 55 104 55 101 55 100 55 105 57 102 57 103 57 106 58 103 58 101 58 106 59 104 59 75 59 106 55 101 55 104 55 106 55 105 55 103 55 77 55 106 55 75 55 107 60 108 60 109 60 108 61 110 61 109 61 107 60 109 60 111 60 107 62 111 62 112 62 113 60 114 60 115 60 114 60 116 60 117 60 115 60 114 60 117 60 116 60 118 60 119 60 117 60 116 60 119 60 118 60 120 60 121 60 119 60 118 60 121 60 120 60 122 60 123 60 121 60 120 60 123 60 122 60 124 60 125 60 123 60 122 60 125 60 124 60 126 60 127 60 125 60 124 60 127 60 126 60 128 60 129 60 127 60 126 60 129 60 130 63 131 63 132 63 128 60 133 60 134 60 129 60 128 60 134 60 135 64 130 64 136 64 130 60 132 60 136 60 134 60 133 60 137 60 135 65 136 65 138 65 133 60 135 60 139 60 108 60 137 60 139 60 137 60 133 60 139 60 135 66 138 66 139 66 108 67 139 67 110 67</p>
        </triangles>
      </mesh>
    </geometry>
  </library_geometries>
  <library_visual_scenes>
    <visual_scene id="Scene" name="Scene">
      <node id="node" name="node" type="NODE">
        <matrix sid="transform">-4.37114e-11 0 0.001 0 0 0.001 0 0 -0.001 0 -4.37114e-11 0 0 0 0 1</matrix>
        <instance_geometry url="#shape0_019-mesh" name="node">
          <bind_material>
            <technique_common>
              <instance_material symbol="R3MPerception-Metallic-material" target="#R3MPerception-Metallic-material"/>
            </technique_common>
          </bind_material>
        </instance_geometry>
      </node>
    </visual_scene>
  </library_visual_scenes>
  <scene>
    <instance_visual_scene url="#Scene"/>
  </scene>
</COLLADA>