ply
format ascii 1.0
comment Created in Blender version 4.2.1 LTS
element vertex 140
property float x
property float y
property float z
property float s
property float t
element face 128
property list uchar uint vertex_indices
end_header
-60 7.400001 -4.499997 0 1
60 7.400001 -4.500003 0 0
60 6.158644 -3.8975406 0.010345 0
-60 6.158644 -3.8975353 0.010345 1
60 4.872037 -3.3989766 0.021066 0
-60 4.872037 -3.3989713 0.021066 1
60 3.548856 -3.0076725 0.032093 0
-60 3.548856 -3.0076673 0.032093 1
-60 2.198028 -2.7262645 0.04335 1
60 2.198028 -2.7262697 0.04335 0
-60 0.828664 -2.5566595 0.054761 1
60 0.828664 -2.5566647 0.054761 0
60 -0.55 -2.5000026 0.06625 0
-60 -0.55 -2.4999974 0.06625 1
-60 -1.928664 -2.5566595 0.077739 1
60 -1.928664 -2.5566647 0.077739 0
-60 -3.298028 -2.7262645 0.08915 1
60 -3.298028 -2.7262697 0.08915 0
60 -4.648856 -3.0076725 0.100407 0
-60 -4.648856 -3.0076673 0.100407 1
-60 -5.972037 -3.3989713 0.111434 1
60 -5.972037 -3.3989766 0.111434 0
-60 -7.258644 -3.8975353 0.122155 1
60 -7.258644 -3.8975406 0.122155 0
-60 -8.5 -4.499997 0.1325 1
60 -8.5 -4.500003 0.1325 0
60 -8.5 4.499997 0.34 0
-60 -8.5 4.500003 0.34 1
-60 -8.5 -4.499997 0.265 1
60 -8.5 -4.500003 0.265 0
-60 -8.5 4.500003 0.1325 1
60 -8.5 4.499997 0.1325 0
60 -7.258644 3.8975353 0.142845 0
-60 -7.258644 3.8975406 0.142845 1
60 -5.972037 3.3989713 0.153566 0
-60 -5.972037 3.3989766 0.153566 1
60 -4.648856 3.0076673 0.164593 0
-60 -4.648856 3.0076725 0.164593 1
-60 -3.298028 2.7262697 0.17585 1
60 -3.298028 2.7262645 0.17585 0
-60 -1.928664 2.5566647 0.187261 1
60 -1.928664 2.5566595 0.187261 0
60 -0.55 2.4999974 0.19875 0
-60 -0.55 2.5000026 0.19875 1
-60 0.828664 2.5566647 0.210239 1
60 0.828664 2.5566595 0.210239 0
-60 2.198028 2.7262697 0.22165 1
60 2.198028 2.7262645 0.22165 0
60 3.548856 3.0076673 0.232907 0
-60 3.548856 3.0076725 0.232907 1
-60 4.872037 3.3989766 0.243934 1
60 4.872037 3.3989713 0.243934 0
-60 6.158644 3.8975406 0.254655 1
60 6.158644 3.8975353 0.254655 0
60 7.400001 4.499997 0.265 0
-60 7.400001 4.500003 0.265 1
60 7.400001 -4.500003 0.415 0
-60 7.400001 -4.499997 0.415 1
-60 7.876027 -3.4327543 0.406106 1
60 7.876027 -3.4327595 0.406106 0
60 8.22101 -2.3162496 0.396802 0
-60 8.22101 -2.3162444 0.396802 1
60 8.430001 -1.1664966 0.387221 0
-60 8.430001 -1.1664914 0.387221 1
60 8.5 -2.6226833e-06 0.3775 0
-60 8.5 2.6226833e-06 0.3775 1
60 8.430001 1.1664914 0.367779 0
-60 8.430001 1.1664966 0.367779 1
60 8.22101 2.3162444 0.358198 0
-60 8.22101 2.3162496 0.358198 1
60 7.876027 3.4327543 0.348894 0
-60 7.876027 3.4327595 0.348894 1
60 7.400001 4.499997 0.34 0
-60 7.400001 4.500003 0.34 1
-60 8.22101 2.3162496 0.471802 0.139342
-60 4.872037 3.3989766 0.480825 0.111434
-60 6.158644 3.8975406 0.48498 0.122155
-60 8.430001 1.1664966 0.462221 0.141083
-60 7.876027 3.4327595 0.481106 0.136467
-60 7.400001 4.500003 0.49 0.1325
-60 -8.5 4.500003 0.49 0
-60 -7.258644 -3.8975353 0.420021 0.010345
-60 -8.5 -4.499997 0.415 0
-60 -7.258644 3.8975406 0.48498 0.010345
-60 -5.972037 -3.3989713 0.424175 0.021066
-60 -5.972037 3.3989766 0.480825 0.021066
-60 -4.648856 -3.0076673 0.427436 0.032093
-60 -4.648856 3.0076725 0.477564 0.032093
-60 -3.298028 -2.7262645 0.429781 0.04335
-60 -3.298028 2.7262697 0.475219 0.04335
-60 -1.928664 -2.5566595 0.431195 0.054761
-60 -1.928664 2.5566647 0.473806 0.054761
-60 -0.55 -2.4999974 0.431667 0.06625
-60 -0.55 2.5000026 0.473333 0.06625
-60 0.828664 -2.5566595 0.431195 0.077739
-60 0.828664 2.5566647 0.473806 0.077739
-60 2.198028 -2.7262645 0.429781 0.08915
-60 7.876027 -3.4327543 0.423894 0.136467
-60 7.400001 -4.499997 0.415 0.1325
-60 6.158644 -3.8975353 0.420021 0.122155
-60 2.198028 2.7262697 0.475219 0.08915
-60 3.548856 -3.0076673 0.427436 0.100407
-60 8.22101 -2.3162444 0.433198 0.139342
-60 4.872037 -3.3989713 0.424175 0.111434
-60 3.548856 3.0076725 0.477564 0.100407
-60 8.430001 -1.1664914 0.442779 0.141083
-60 8.5 2.6226833e-06 0.4525 0.141667
60 6.158644 3.8975353 0.420021 0.263822
60 4.872037 3.3989713 0.424175 0.2531
60 8.22101 2.3162444 0.433198 0.281008
60 8.430001 1.1664914 0.442779 0.28275
60 7.876027 3.4327543 0.423894 0.278134
60 7.400001 4.499997 0.415 0.274167
60 -8.5 -4.500003 0.49 0.141667
60 -7.258644 -3.8975406 0.48498 0.152011
60 -8.5 4.499997 0.415 0.141667
60 -5.972037 -3.3989766 0.480825 0.162733
60 -7.258644 3.8975353 0.420021 0.152011
60 -4.648856 -3.0076725 0.477564 0.17376
60 -5.972037 3.3989713 0.424175 0.162733
60 -3.298028 -2.7262697 0.475219 0.185016
60 -4.648856 3.0076673 0.427436 0.17376
60 -1.928664 -2.5566647 0.473806 0.196428
60 -3.298028 2.7262645 0.429781 0.185016
60 -0.55 -2.5000026 0.473333 0.207917
60 -1.928664 2.5566595 0.431195 0.196428
60 0.828664 -2.5566647 0.473806 0.219406
60 -0.55 2.4999974 0.431667 0.207917
60 2.198028 -2.7262697 0.475219 0.230817
60 0.828664 2.5566595 0.431195 0.219406
60 6.158644 -3.8975406 0.48498 0.263822
60 7.400001 -4.500003 0.49 0.274167
60 7.876027 -3.4327595 0.481106 0.278134
60 3.548856 -3.0076725 0.477564 0.242074
60 2.198028 2.7262645 0.429781 0.230817
60 4.872037 -3.3989766 0.480825 0.2531
60 8.22101 -2.3162496 0.471802 0.281008
60 3.548856 3.0076673 0.427436 0.242074
60 8.430001 -1.1664966 0.462221 0.28275
60 8.5 -2.6226833e-06 0.4525 0.283333
3 0 1 2
3 3 2 4
3 3 0 2
3 5 4 6
3 5 3 4
3 7 5 6
3 8 6 9
3 8 7 6
3 10 9 11
3 10 11 12
3 10 8 9
3 13 10 12
3 14 12 15
3 14 13 12
3 16 15 17
3 16 17 18
3 16 14 15
3 19 16 18
3 20 18 21
3 20 19 18
3 22 21 23
3 22 20 21
3 24 23 25
3 24 22 23
3 26 27 28
3 29 26 28
3 30 31 32
3 33 32 34
3 33 30 32
3 35 34 36
3 35 33 34
3 37 35 36
3 38 36 39
3 38 37 36
3 40 39 41
3 40 41 42
3 40 38 39
3 43 40 42
3 44 42 45
3 44 43 42
3 46 45 47
3 46 47 48
3 46 44 45
3 49 46 48
3 50 48 51
3 50 49 48
3 52 51 53
3 52 53 54
3 52 50 51
3 55 52 54
3 56 57 58
3 59 56 58
3 60 59 61
3 59 58 61
3 62 60 63
3 60 61 63
3 64 62 65
3 62 63 65
3 66 64 67
3 64 65 67
3 68 66 69
3 66 67 69
3 70 68 71
3 68 69 71
3 72 70 73
3 70 71 73
3 74 75 76
3 74 77 75
3 78 74 76
3 79 78 76
3 80 81 82
3 83 84 81
3 83 81 80
3 85 86 84
3 85 84 83
3 87 88 86
3 87 86 85
3 89 90 88
3 89 88 87
3 91 92 90
3 91 90 89
3 93 94 92
3 93 92 91
3 95 96 94
3 95 94 93
3 97 98 99
3 100 101 96
3 100 96 95
3 102 99 103
3 102 97 99
3 104 101 100
3 105 102 103
3 106 103 101
3 106 104 75
3 106 101 104
3 106 105 103
3 77 106 75
3 107 108 109
3 108 110 109
3 107 109 111
3 107 111 112
3 113 114 115
3 114 116 117
3 115 114 117
3 116 118 119
3 117 116 119
3 118 120 121
3 119 118 121
3 120 122 123
3 121 120 123
3 122 124 125
3 123 122 125
3 124 126 127
3 125 124 127
3 126 128 129
3 127 126 129
3 130 131 132
3 128 133 134
3 129 128 134
3 135 130 136
3 130 132 136
3 134 133 137
3 135 136 138
3 133 135 139
3 108 137 139
3 137 133 139
3 135 138 139
3 108 139 110
