<?xml version="1.0" encoding="utf-8"?>
<COLLADA xmlns="http://www.collada.org/2005/11/COLLADASchema" version="1.4.1" xmlns:xsi="http://www.w3.org/2001/XMLSchema-instance">
  <asset>
    <contributor>
      <author>Blender User</author>
      <authoring_tool>Blender 4.2.0 commit date:2024-07-16, commit time:06:20, hash:a51f293548ad</authoring_tool>
    </contributor>
    <created>2024-07-18T17:24:20</created>
    <modified>2024-07-18T17:24:20</modified>
    <unit name="meter" meter="1"/>
    <up_axis>Z_UP</up_axis>
  </asset>
  <library_effects>
    <effect id="R3MPerception-Metallic-effect">
      <profile_COMMON>
        <technique sid="common">
          <lambert>
            <emission>
              <color sid="emission">0 0 0 1</color>
            </emission>
            <diffuse>
              <color sid="diffuse">0.3 0.3 0.3 1</color>
            </diffuse>
            <reflectivity>
              <float sid="specular">1</float>
            </reflectivity>
            <index_of_refraction>
              <float sid="ior">1.45</float>
            </index_of_refraction>
          </lambert>
        </technique>
      </profile_COMMON>
    </effect>
  </library_effects>
  <library_images/>
  <library_materials>
    <material id="R3MPerception-Metallic-material" name="R3MPerception-Metallic">
      <instance_effect url="#R3MPerception-Metallic-effect"/>
    </material>
  </library_materials>
  <library_geometries>
    <geometry id="shape0_018-mesh" name="shape0.018">
      <mesh>
        <source id="shape0_018-mesh-positions">
          <float_array id="shape0_018-mesh-positions-array" count="3744">86 35 3 86 41 2 86.4 35 3 86 23 3 86.4 23 3 86 35 3 86 35 3.007 86 41 2.0068 86 23 3 86 41 2 86.4 41 2 86.4 41 2 86 41 2 86 41 2.0068 86.4 23 3 86.4 35 3 86.4 41 2 86.4 48.2 0 86.4 41 14.0018 86.4 41 14.0018 85.5169 41 14.0166 85.3159 41 2.0183 85.3159 41 2.0183 86 41 2.0068 86 35 3.007 85.5169 41 14.0166 85.5001 35 13.0167 86.4 41 14.0018 85.5001 35 13.0167 85.5169 41 14.0166 85.3327 35 3.0181 85.3159 41 2.0183 85.3327 35 3.0181 85.3327 23 3.0181 86 23 3.007 85.4831 24.5 12 85.3327 23 3.0181 85.3491 24.5 4 86 23 3.007 85.3327 23 3.0181 86 23 3.007 86 23 3 86 23 3 86.4 23 3 68 23 3 68 23 3 86.4 9 3 86.4 6 0 68 23 3 86.4 23 3 68 9 3 86.4 9 3 86.4 9 13 86.4 6 7.75 68 9 3 68 9 13 68 23 3 68 10 3.5 68 23 13 68 9 13 85.4999 21 13 86.4 9 13 68 10 12.7 68 23 13 68 22.5 3.5 67.9 10 3.5 68 22.5 3.5 68 10 3.5 67.9 10 3.5 68 22.5 12.7 67.9 10 12.7 67.9 10 12.7 68 10 12.7 67.9 22.5 12.7 68 22.5 12.7 67.9 22.5 3.5 67.9 22.5 3.5 67.9 22.5 12.7 67.9 22.5 3.5 67.9 22.5 12.7 68 22.5 3.5 68 22.5 12.7 68 23 4 68 23 12 68 23 12 68 23 13 85.4831 23 12 68 23 12 85.4831 23 12 68 24.5 12 68 24.5 12 68 24.5 4 85.4831 23 12 85.4999 23 13 85.4999 23 13 85.4831 24.5 12 68 24.5 4 68 24.5 12 85.3491 24.5 4 85.4831 24.5 12 68 24.5 4 85.3491 24.5 4 68 23 4 85.3491 23 4 85.3491 23 4 68 23 4 85.3491 23 4 85.5001 21 13.0167 85.4999 21 13 85.4999 23 13 85.5001 21 13.0167 86.4 35 13.0017 86.4 21 13.0017 86.4 21 13.0017 86.4 21 13 86.4 21 13 86.4 9 17.25 86.4 23 17.25 86.4 35 13.0017 86.4 35 17.25 86.4 41 16.25 86 35 17.25 86 41 16.25 86.4 35 17.25 86.4 41 16.25 86.4 23 17.25 86.4 48.2 44.5 86.4 41 28.2518 86.4 41 28.2518 86.4 41 16.25 86 41 16.2568 86 41 16.25 86 41 16.2568 86 41 16.25 86 35 17.25 86 23 17.25 86 35 17.257 86 23 17.25 85.5169 41 28.2666 85.3159 41 16.2683 85.3159 41 16.2683 86 41 16.2568 86 35 17.257 86 23 17.257 85.3327 35 17.2681 86 23 17.257 86 23 17.25 86.4 23 17.25 68 23 17.25 68 23 17.25 85.3327 23 17.2681 86 23 17.25 86 23 17.257 85.3327 23 17.2681 68 23 18.25 85.3491 23 18.25 85.3327 35 17.2681 85.3327 23 17.2681 85.3491 24.5 18.25 85.3491 23 18.25 85.3491 24.5 18.25 85.3491 23 18.25 68 23 18.25 68 24.5 18.25 68 23 18.25 68 22.5 17.7 68 23 26.25 68 23 17.25 68 24.5 18.25 85.4831 24.5 26.25 68 24.5 18.25 68 24.5 26.25 85.3491 24.5 18.25 85.4831 24.5 26.25 68 24.5 26.25 68 23 26.25 68 23 27.25 85.4831 23 26.25 68 23 26.25 85.4831 23 26.25 68 24.5 26.25 68 23 27.25 68 22.5 26.9 85.4831 24.5 26.25 85.4999 23 27.25 85.5001 35 27.2667 85.4831 23 26.25 85.4999 23 27.25 85.5001 21 27.2667 85.4999 21 27.25 85.4999 23 27.25 68 23 27.25 85.4999 21 27.25 85.5001 35 27.2667 85.5001 21 27.2667 86.4 35 27.2517 85.5169 41 28.2666 86.4 41 28.2518 85.5169 41 28.2666 85.3159 41 16.2683 86.4 35 31.5 86.4 35 27.2517 86.4 41 30.5 86.4 23 31.5 86 35 31.5 86 41 30.5 86.4 35 31.5 86.4 41 30.5 86.4 23 31.5 86.4 41 42.5018 86.4 41 42.5018 86.4 41 30.5 86 41 30.5068 86 41 30.5 86 41 30.5068 86 41 30.5 86 35 31.5 86 23 31.5 86 35 31.507 86 23 31.5 85.5169 41 42.5166 85.3159 41 30.5183 85.3159 41 30.5183 86 41 30.5068 86 35 31.507 86 23 31.507 85.3327 35 31.5181 86 23 31.507 86 23 31.5 86.4 23 31.5 68 23 31.5 68 23 31.5 85.3327 23 31.5181 86 23 31.5 86 23 31.507 85.3327 23 31.5181 68 23 32.5 85.3491 23 32.5 85.3327 35 31.5181 85.3327 23 31.5181 85.3491 24.5 32.5 85.3491 23 32.5 85.3491 24.5 32.5 85.3491 23 32.5 68 23 32.5 85.4831 24.5 40.5 68 24.5 32.5 68 24.5 40.5 85.3491 24.5 32.5 85.4831 24.5 40.5 68 24.5 32.5 85.4999 23 41.5 85.5001 35 41.5167 85.4831 23 40.5 85.4831 23 40.5 85.4831 24.5 40.5 68 24.5 40.5 68 23 40.5 68 23 40.5 68 24.5 40.5 68 24.5 32.5 68 23 32.5 68 23 40.5 68 23 41.5 85.4831 23 40.5 68 22.5 41 68 23 41.5 85.4999 23 41.5 85.5001 21 41.5167 85.4999 21 41.5 85.4999 21 41.5 85.4999 23 41.5 68 23 41.5 68 9 41.5 68 9 41.5 68 10 41 68 22.5 31.8 67.9 22.5 41 68 22.5 41 68 22.5 31.8 68 10 41 68 22.5 41 67.9 22.5 41 68 23 31.5 68 10 31.8 67.9 22.5 31.8 68 22.5 31.8 67.9 10 31.8 68 10 31.8 67.9 22.5 31.8 67.9 10 41 67.9 22.5 41 67.9 22.5 31.8 67.9 10 41 67.9 10 31.8 68 9 31.5 86.4 9 41.5 86.4 9 31.5 68 23 31.5 86.4 23 31.5 68 9 31.5 86.4 9 31.5 86.4 9 27.25 86.4 21 27.2517 86.4 6 36.75 86.4 21 27.25 86.4 21 27.2517 86.4 9 27.25 86.4 21 27.25 68 9 27.25 68 10 26.9 68 9 27.25 68 9 17.25 68 10 17.7 67.9 10 26.9 67.9 10 17.7 67.9 10 26.9 68 10 26.9 67.9 22.5 26.9 68 22.5 26.9 67.9 22.5 26.9 68 22.5 26.9 68 22.5 17.7 67.9 22.5 17.7 67.9 22.5 26.9 67.9 22.5 17.7 67.9 22.5 17.7 68 22.5 17.7 67.9 10 17.7 68 10 17.7 68 23 17.25 86.4 23 17.25 68 9 17.25 86.4 9 17.25 86.4 6 36.75 86.4 6 7.75 58 6 7.75 69.9 0 7.75 86.4 6 7.75 69.9 0 2 86.4 6 0 58 6 7.75 86.4 6 7.75 69.9 0 7.75 58 0 7.75 65.5 0 2 58 0 7.75 69.9 3 2 69.9 0 2 69.9 0 0 69.9 3 2 65.5 3 2 69.9 0 2 65.5 0 2 69.9 0 0 65.5 3 2 65.5 3 0 65.5 0 2 65.5 0 0 61.5 0 2 65.5 0 0 58 0 2 58 6 7.75 58 0 7.75 58 0 2 61.5 0 0 61.5 6 2 61.5 0 2 61.5 0 0 61.5 6 2 58 6 2 61.5 0 2 58 0 2 61.5 0 0 65.5 0 0 65.5 3 0 61.5 6 0 61.5 6 0 61.5 6 2 61.5 6 0 58 6 2 25.4 6 5.4 25.4 6 0 58 6 2 23.9 6 19.08 23.9 6 5.4 23.9 0 5.4 25.4 6 5.4 25.4 6 0 25.4 6 5.4 23.9 0 5.4 23.9 6 5.4 23.9 0 5.4 23.9 0 19.08 23.9 6 5.4 23.9 6 19.08 5 0 14.45 23.9 0 19.08 23.9 0 5.4 9.08 0 2.1 23.9 0 0 23.9 0 0 5 0 19.08 23.9 0 19.08 5 0 19.08 23.9 6 19.08 5 0 14.45 0 0 14.45 5 6 15.95 4.08 0 2.1 0 0 14.45 5 0 19.08 5 0 14.45 5 6 15.95 5 6 19.08 5 6 19.08 0 6 15.95 5 6 19.08 5 6 15.95 0 6 15.95 0 6 34.35 5 6 31.45 0 9 17.25 0 6 15.95 0 9 13 0 9 27.25 0 6 34.35 0 0 14.45 0 21 13.0151 0 23 17.25 18.4999 9 17.25 18.4999 9 27.25 0 9 17.25 0 9 27.25 18.4999 9 17.25 0 9 17.25 18.4999 23 17.25 0 23 17.25 18.4999 9 27.25 18.4999 9 17.25 18.4999 10 17.7 18.4999 23 17.25 0 9 27.25 18.4999 9 27.25 0.9 21 27.25 18.4999 23 27.25 18.4999 23 27.25 18.4999 10 26.9 18.4999 22.5 17.7 18.4999 22.5 26.9 0.9 23 27.25 18.4999 23 27.25 18.4999 23 26.25 0.9 23 27.25 18.4999 23 26.25 18.4999 23 18.25 0.883304 23 26.25 18.4999 24.5 26.25 18.4999 24.5 26.25 0.883304 24.5 26.25 18.4999 23 26.25 0.883304 23 26.25 0.9 23 27.25 0.883304 24.5 26.25 0.9 35 27.25 0.9 35 27.25 0.9 21 27.25 0.9 23 27.25 0.883304 23 26.25 0.732601 35 17.2514 0.749301 24.5 18.25 18.4999 24.5 26.25 18.4999 24.5 18.25 0.883304 24.5 26.25 0.749301 24.5 18.25 18.4999 24.5 18.25 0.749301 23 18.25 18.4999 23 18.25 18.4999 23 17.25 18.4999 23 18.25 0.749301 23 18.25 18.4999 24.5 18.25 0.749301 24.5 18.25 0.732601 23 17.2514 0.749301 23 18.25 0.732601 23 17.2514 0 23 17.25 0.732601 35 17.2514 0.732601 23 17.2514 0 35 17.2637 0 23 17.2637 0 23 17.2637 0 35 13.0151 0 35 17.2637 0 23 17.2637 0 41 16.2635 0 41 16.2635 0 41 14.0152 0.9 35 13 0.916701 41 13.9999 0 35 13.0151 0 41 14.0152 0 21 13.0151 0 21 13 0.9 21 13 0 21 13.0151 0 21 13 0.9 21 13 0 9 3 0 9 13 18.4999 9 13 0.9 21 13 0 21 13 18.4999 9 13 0 9 13 0 9 3 0.9 35 13 0.9 21 13 0.9 23 13 18.4999 23 13 0.9 23 13 18.4999 9 3 18.4999 23 13 18.4999 9 13 18.4999 10 12.7 18.4999 9 3 18.4999 10 3.5 18.4999 23 13 18.4999 23 12 0.9 23 13 18.4999 22.5 12.7 18.4999 23 12 18.4999 23 3 18.4999 22.5 3.5 18.4999 9 3 0 9 3 18.4999 23 3 0 23 3 0.732601 23 3.0014 0.749301 23 4 18.4999 23 3 18.4999 23 4 0 23 3 18.4999 23 4 18.4999 23 4 0.749301 23 4 18.4999 24.5 4 18.4999 24.5 12 18.4999 24.5 4 0.749301 24.5 4 0.749301 23 4 0.732601 23 3.0014 0.749301 24.5 4 18.4999 24.5 12 18.4999 24.5 4 0.883304 24.5 12 0.749301 24.5 4 18.4999 24.5 12 0.883304 24.5 12 18.4999 23 12 0.9 23 13 0.883304 24.5 12 0.9 35 13 0.732601 35 3.0014 0.883304 23 12 0.883304 23 12 0.715803 41 2.0015 0.732601 35 3.0014 0 41 2.0135 0 35 3.0137 0.732601 23 3.0014 0.715803 41 2.0015 0.916701 41 13.9999 0.715803 41 2.0015 0 41 2.0135 0.916701 41 13.9999 0 41 2.0135 0 48.2 0 0 23 3 0 35 3.0137 0 41 14.0152 0 23 3.0137 0 23 3.0137 0 23 3.0137 0 0 0 4.08 0 0 0 0 0 0 48.2 0 0 0 0 4.08 3 0 4.08 0 0 4.08 0 0 4.08 0 2.1 4.08 3 0 4.08 3 2.1 4.08 0 2.1 9.08 0 2.1 4.08 3 2.1 9.08 3 0 4.08 3 0 4.08 3 2.1 9.08 3 0 9.08 3 2.1 9.08 3 2.1 9.08 0 0 9.08 0 2.1 9.08 0 0 9.08 3 2.1 9.08 3 0 25.4 6 0 9.08 0 0 23.9 0 0 21.1 49.5 0 13.95 49.5 0 69.9 3 0 66.30001 49.5 0 86.4 6 0 73.45 49.5 0 69.9 3 0 65.5 3 0 65.5 3 2 69.9 0 0 69.9 3 2 69.9 3 0 86.4 48.2 0 80 48.8425 7.75 79.5714 48.8855 6.0091 80 48.8425 22 78.3837 49.0047 4.6662 73.45 49.5 0 79.4976 30 5.875 78.3837 49.0047 4.6662 79.5714 48.8855 6.0091 80 30 7.75 80 48.8425 7.75 78.125 30 4.5024 78.125 30 4.5024 76.7082 49.1729 4.0281 78.3837 49.0047 4.6662 76.7082 49.1729 4.0281 74.375 30 4.5024 78.125 30 4.5024 79.4976 30 5.875 73.0024 30 5.875 80 30 7.75 76.25 30 4 76.25 30 4 74.928 49.3516 4.2407 74.928 49.3516 4.2407 66.30001 49.5 0 72.6098 49.5 6.8492 73.45 49.5 5.2555 74.375 30 4.5024 73.45 49.5 5.2555 73.0024 30 5.875 72.5 30 7.75 72.6098 49.5 8.6508 73.0024 30 9.625 79.4976 30 9.625 73.45 49.5 10.2445 72.6098 49.5 21.0992 73.0024 30 9.625 74.375 30 10.9976 73.45 49.5 10.2445 78.125 30 10.9976 74.375 30 10.9976 79.4976 30 9.625 79.5714 48.8855 9.4909 78.3837 49.0047 10.8338 78.3837 49.0047 10.8338 78.125 30 10.9976 79.4976 30 9.625 78.3837 49.0047 10.8338 79.5714 48.8855 9.4909 79.5714 48.8855 20.2591 76.7082 49.1729 11.4719 78.3837 49.0047 18.9162 76.7082 49.1729 11.4719 76.25 30 11.5 76.25 30 11.5 74.928 49.3516 11.2593 76.7082 49.1729 18.2781 74.928 49.3516 18.4907 74.928 49.3516 11.2593 79.4976 30 20.125 78.3837 49.0047 18.9162 79.5714 48.8855 20.2591 78.125 30 18.7524 78.125 30 18.7524 76.7082 49.1729 18.2781 78.3837 49.0047 18.9162 76.25 30 18.25 74.928 49.3516 18.4907 74.375 30 18.7524 73.45 49.5 19.5055 73.45 49.5 19.5055 74.375 30 18.7524 76.25 30 18.25 78.125 30 18.7524 79.4976 30 20.125 80 30 22 73.0024 30 20.125 80 30 22 73.0024 30 20.125 72.5 30 22 72.6098 49.5 22.9008 73.0024 30 23.875 79.4976 30 23.875 73.45 49.5 24.4945 73.0024 30 23.875 74.375 30 25.2476 73.45 49.5 24.4945 78.125 30 25.2476 74.375 30 25.2476 79.4976 30 23.875 79.5714 48.8855 23.7409 78.3837 49.0047 25.0838 78.3837 49.0047 25.0838 78.125 30 25.2476 79.4976 30 23.875 76.25 30 25.75 76.7082 49.1729 25.7219 76.25 30 25.75 74.928 49.3516 25.5093 78.3837 49.0047 33.1662 76.7082 49.1729 25.7219 78.3837 49.0047 25.0838 76.7082 49.1729 32.5281 74.928 49.3516 32.7407 74.928 49.3516 25.5093 79.5714 48.8855 34.5091 79.5714 48.8855 23.7409 79.4976 30 34.375 78.3837 49.0047 33.1662 79.5714 48.8855 34.5091 78.125 30 33.0024 78.125 30 33.0024 76.7082 49.1729 32.5281 78.3837 49.0047 33.1662 76.25 30 32.5 74.928 49.3516 32.7407 74.375 30 33.0024 73.45 49.5 33.7555 73.45 49.5 33.7555 73.0024 30 34.375 72.6098 49.5 35.3492 73.0024 30 34.375 74.375 30 33.0024 78.125 30 33.0024 79.4976 30 34.375 76.25 30 32.5 72.5 30 36.25 80 30 36.25 72.6098 49.5 37.1508 66.30001 49.5 44.5 66.30001 64.4 0 55.5975 66 0 66.30001 64.4 0 55.5975 66 11 66.30001 64.4 44.5 55.5975 66 8 55.5975 66 0 21.1 66 0 31.1026 66 8 21.1 66 0 52.5463 69.9721 8 55.5975 66 8 52.5463 69.9721 8 34.1537 69.9721 8 31.1026 66 8 31.1026 66 11 31.1026 66 11 31.1026 66 8 34.1537 69.9721 8 21.1 66 44.5 21.1 49.5 0 21.1 66 0 21.1 66 44.5 31.1026 66 33.5 31.1026 66 36.5 55.5975 66 44.5 21.1 49.5 44.5 21.1 66 44.5 55.5975 66 44.5 21.1 49.5 44.5 55.5975 66 36.5 55.5975 66 36.5 31.1026 66 36.5 34.1537 69.9721 36.5 34.1537 69.9721 36.5 31.1026 66 36.5 34.1537 69.9721 33.5 31.1026 66 33.5 66.30001 49.5 44.5 66.30001 64.4 44.5 55.5975 66 33.5 31.1026 66 33.5 55.5975 66 33.5 52.5463 69.9721 33.5 52.5463 69.9721 33.5 52.5463 69.9721 11 55.5975 66 11 31.1026 66 11 52.5463 69.9721 11 34.1537 69.9721 11 34.1537 69.9721 11 38.4251 72.5878 11 48.2749 72.5878 11 48.2749 72.5878 8 48.2749 72.5878 11 48.2749 72.5878 8 38.4251 72.5878 8 38.4251 72.5878 8 38.4251 72.5878 11 43.35 73.5 11 43.35 73.5 11 38.4251 72.5878 11 38.4251 72.5878 8 43.35 73.5 8 43.35 73.5 8 52.5463 69.9721 36.5 52.5463 69.9721 36.5 48.2749 72.5878 36.5 48.2749 72.5878 33.5 48.2749 72.5878 36.5 38.4251 72.5878 36.5 38.4251 72.5878 36.5 38.4251 72.5878 33.5 43.35 73.5 36.5 43.35 73.5 33.5 43.35 73.5 36.5 48.2749 72.5878 33.5 38.4251 72.5878 33.5 43.35 73.5 33.5 34.1537 69.9721 33.5 38.4251 72.5878 33.5 38.4251 72.5878 36.5 73.45 49.5 44.5 61.5 6 44.5 73.45 49.5 44.5 73.0024 30 38.125 73.45 49.5 38.7445 73.0024 30 38.125 74.375 30 39.4976 73.45 49.5 38.7445 79.4976 30 38.125 78.125 30 39.4976 74.375 30 39.4976 74.928 49.3516 39.7593 74.928 49.3516 39.7593 76.25 30 40 76.25 30 40 78.125 30 39.4976 76.7082 49.1729 39.9719 78.3837 49.0047 39.3338 79.4976 30 38.125 79.4976 30 38.125 79.5714 48.8855 37.9909 78.3837 49.0047 39.3338 80 30 36.25 78.3837 49.0047 39.3338 79.5714 48.8855 37.9909 76.7082 49.1729 39.9719 86.4 6 44.5 86.4 48.2 44.5 86.4 6 44.5 80 48.8425 36.25 80 48.8425 36.25 80 48.8425 22 86.4 35 41.5017 85.5169 41 42.5166 85.5001 35 41.5167 86.4 41 42.5018 86.4 35 41.5017 86.4 21 41.5017 85.5001 21 41.5167 86.4 21 41.5017 85.5169 41 42.5166 85.3159 41 30.5183 86.4 21 41.5 86.4 6 44.5 86.4 6 36.75 69.9 0 44.5 69.9 0 44.5 86.4 9 41.5 86.4 21 41.5 25.4 6 44.5 61.5 6 44.5 58 6 42.5 61.5 6 42.5 61.5 6 42.5 61.5 6 44.5 61.5 0 42.5 61.5 0 44.5 61.5 0 44.5 25.4 6 44.5 58 6 42.5 61.5 6 42.5 58 0 42.5 61.5 0 42.5 61.5 0 42.5 69.9 0 36.75 61.5 0 44.5 58 0 36.75 58 0 42.5 58 0 42.5 58 0 36.75 58 6 42.5 58 0 36.75 69.9 0 36.75 58 6 36.75 58 6 36.75 86.4 6 36.75 58 6 36.75 23.9 6 31.45 25.4 6 39.1 5 6 34.35 23.9 6 31.45 5 6 31.45 23.9 0 31.45 5 0 31.45 5 0 31.45 5 6 31.45 5 6 34.35 5 6 34.35 0 6 34.35 5 0 35.85 5 0 35.85 23.9 0 31.45 5 0 31.45 5 0 35.85 23.9 0 39.1 23.9 6 31.45 23.9 0 31.45 23.9 0 39.1 0 0 35.85 0 0 44.5 0 0 35.85 23.9 0 44.5 23.9 6 39.1 23.9 0 39.1 25.4 6 39.1 23.9 6 39.1 23.9 0 39.1 23.9 0 44.5 25.4 6 39.1 25.4 6 44.5 23.9 0 44.5 0 0 44.5 23.9 6 39.1 0 48.2 44.5 13.95 49.5 44.5 21.1 49.5 44.5 13.9944 49.5 36.4543 13.9944 49.5 36.0458 13.95 49.5 44.5 13.9944 49.5 22.2043 21.1 49.5 0 13.9944 49.5 36.0458 13.9944 49.5 36.4543 14 30 36.25 13.95 49.5 36.8603 13.95 49.5 36.8603 13.95 49.5 35.6397 13.95 49.5 35.6397 13.95 49.5 22.6103 13.9944 49.5 21.7958 13.9944 49.5 22.2043 14 30 22 13.95 49.5 22.6103 13.9944 49.5 21.7958 13.4976 30 23.875 13.2129 49.4313 24.2987 13.2129 49.4313 24.2987 13.4976 30 34.375 13.2129 49.4313 33.9513 13.2129 49.4313 33.9513 12.125 30 25.2476 13.2129 49.4313 24.2987 11.7606 49.296 25.4323 13.4976 30 23.875 11.7606 49.296 25.4323 13.4976 30 23.875 7.0024 30 23.875 6.5 30 22 12.125 30 25.2476 14 30 22 10.25 30 25.75 10.25 30 25.75 8.375 30 25.2476 9.9438 49.1267 25.7375 9.9438 49.1267 25.7375 11.7606 49.296 32.8177 8.375 30 25.2476 8.200901 48.9642 25.1407 7.0024 30 23.875 6.9525 48.8479 23.7858 6.9525 48.8479 23.7858 8.200901 48.9642 25.1407 6.9525 48.8479 34.4642 8.200901 48.9642 33.1093 9.9438 49.1267 32.5125 12.125 30 33.0024 11.7606 49.296 32.8177 13.2129 49.4313 33.9513 10.25 30 32.5 9.9438 49.1267 32.5125 8.375 30 33.0024 8.200901 48.9642 33.1093 7.0024 30 34.375 6.9525 48.8479 34.4642 8.375 30 33.0024 12.125 30 33.0024 13.4976 30 34.375 10.25 30 32.5 7.0024 30 34.375 12.125 30 33.0024 14 30 36.25 6.5 30 36.25 13.4976 30 38.125 13.4976 30 38.125 6.5 48.8057 36.25 6.9525 48.8479 38.0358 7.0024 30 38.125 12.125 30 39.4976 13.4976 30 38.125 13.2129 49.4313 38.5487 13.2129 49.4313 38.5487 12.125 30 39.4976 13.2129 49.4313 38.5487 11.7606 49.296 39.6823 11.7606 49.296 39.6823 10.25 30 40 10.25 30 40 8.375 30 39.4976 8.200901 48.9642 39.3907 7.0024 30 38.125 8.375 30 39.4976 6.9525 48.8479 38.0358 9.9438 49.1267 39.9875 9.9438 49.1267 39.9875 8.200901 48.9642 39.3907 0 48.2 44.5 6.5 48.8057 22 6.9525 48.8479 20.2142 0 48.2 0 6.5 48.8057 7.75 7.0024 30 20.125 8.375 30 18.7524 7.0024 30 20.125 8.200901 48.9642 18.8594 6.9525 48.8479 20.2142 13.4976 30 20.125 8.375 30 18.7524 13.95 49.5 21.3897 13.4976 30 20.125 13.2129 49.4313 19.7013 12.125 30 18.7524 12.125 30 18.7524 13.95 49.5 21.3897 13.95 49.5 8.360301 13.2129 49.4313 10.0487 13.2129 49.4313 19.7013 13.9944 49.5 7.9542 13.9944 49.5 7.9542 13.95 49.5 8.360301 14 30 7.75 13.4976 30 9.625 13.2129 49.4313 10.0487 12.125 30 10.9976 13.2129 49.4313 10.0487 11.7606 49.296 11.1823 13.4976 30 9.625 11.7606 49.296 11.1823 13.4976 30 9.625 7.0024 30 9.625 6.5 30 7.75 12.125 30 10.9976 14 30 7.75 10.25 30 11.5 10.25 30 11.5 8.375 30 10.9976 9.9438 49.1267 11.4875 11.7606 49.296 18.5677 9.9438 49.1267 11.4875 8.375 30 10.9976 8.200901 48.9642 10.8906 7.0024 30 9.625 6.9525 48.8479 9.5358 6.9525 48.8479 9.5358 8.200901 48.9642 10.8906 8.200901 48.9642 18.8594 9.9438 49.1267 18.2625 12.125 30 18.7524 11.7606 49.296 18.5677 13.2129 49.4313 19.7013 10.25 30 18.25 9.9438 49.1267 18.2625 10.25 30 18.25 6.9525 48.8479 5.9642 7.0024 30 5.875 7.0024 30 5.875 6.9525 48.8479 5.9642 8.200901 48.9642 4.6094 8.200901 48.9642 4.6094 0 48.2 44.5 13.95 49.5 0 8.375 30 4.5024 9.9438 49.1267 4.0125 9.9438 49.1267 4.0125 10.25 30 4 8.375 30 4.5024 12.125 30 4.5024 13.4976 30 5.875 10.25 30 4 11.7606 49.296 4.3177 11.7606 49.296 4.3177 12.125 30 4.5024 13.2129 49.4313 5.4513 13.2129 49.4313 5.4513 13.4976 30 5.875 12.125 30 4.5024 13.95 49.5 7.1397 13.2129 49.4313 5.4513 13.95 49.5 7.1397 13.9944 49.5 7.5457 13.9944 49.5 7.5457 0 21 41.5151 0 41 42.5152 0 0 44.5 0 41 30.5 0 41 28.2652 0 41 30.5 0 41 42.5152 0.908401 41 42.5 0 41 42.5152 0 35 41.5151 0.908401 41 42.5 0 35 41.5151 1 41 42.5 1 35 41.5 0.9 35 41.5 1 41 42.5 1 41 30.5 0 21 41.5151 0.9 21 41.5 1 21 41.5 0.9 21 41.5 0 21 41.5151 0 21 41.5 0 9 41.5 0 21 41.5 0 21 41.5 1 21 41.5 0.9 21 41.5 1 21 41.5 0 21 41.5 0 9 41.5 1 35 41.5 1 21 41.5 1 23 41.5 18.4999 9 41.5 18.4999 23 41.5 1 23 41.5 0 0 35.85 0 9 31.5 18.4999 9 41.5 0 9 41.5 0 9 31.5 18.4999 9 31.5 18.4999 23 41.5 18.4999 9 41.5 18.4999 10 41 18.4999 9 31.5 18.4999 23 41.5 18.4999 23 40.5 1 23 41.5 18.4999 23 40.5 18.4999 22.5 41 18.4999 10 31.8 18.4999 9 31.5 0 9 31.5 18.4999 23 31.5 18.4999 23 31.5 18.4999 22.5 31.8 18.4999 23 32.5 0 23 31.5 18.4999 23 32.5 18.4999 23 31.5 1 23 31.5 18.4999 23 31.5 0 23 31.5 1 23 31.5 1 23 32.5 18.4999 23 32.5 1 23 32.5 18.4999 24.5 32.5 18.4999 24.5 32.5 18.4999 24.5 40.5 1 23 32.5 1 23 31.5 1 24.5 32.5 1 35 31.5 1 23 31.5 0 23 31.5 1 35 31.5 1 24.5 32.5 18.4999 24.5 40.5 18.4999 24.5 32.5 1 24.5 40.5 1 24.5 32.5 18.4999 24.5 40.5 1 24.5 40.5 18.4999 23 40.5 1 35 41.5 1 24.5 40.5 1 23 41.5 1 23 40.5 1 23 40.5 1 23 40.5 0 35 31.5 0 41 30.5 1 41 30.5 1 41 30.5 1 41 42.5 0 35 27.2651 0 35 31.5 0 23 31.5 0 21 27.2651 0.9 35 27.25 0.916701 41 28.2499 0 35 27.2651 0 41 28.2652 0 21 27.2651 0 41 16.2635 0 41 28.2652 0.916701 41 28.2499 0.715803 41 16.2515 0.715803 41 16.2515 0.916701 41 28.2499 0.9 21 27.25 0.715803 41 16.2515 0 21 27.2651 0 21 27.25 0.9 21 27.25 0 21 27.25 0 21 27.25 0.883304 23 12</float_array>
          <technique_common>
            <accessor source="#shape0_018-mesh-positions-array" count="1248" stride="3">
              <param name="X" type="float"/>
              <param name="Y" type="float"/>
              <param name="Z" type="float"/>
            </accessor>
          </technique_common>
        </source>
        <source id="shape0_018-mesh-normals">
          <float_array id="shape0_018-mesh-normals-array" count="1149">0 -0.1643959 -0.9863945 0 0 -1 -1 0 0 0 -0.164402 -0.9863935 0 1 0 -0.01657879 -0.1644102 -0.9862528 0.01652985 -0.1644069 0.9862542 -0.9998599 1.01725e-5 0.01674038 -0.9998598 -7.84133e-6 0.01675033 -0.01640522 -0.1643896 -0.9862591 -0.01663196 0 -0.9998617 -0.016631 0 -0.9998617 -0.9998599 -3.48772e-6 0.01674038 -0.9998606 0 0.01670324 -0.9998598 5.81206e-6 0.01674795 0 0 1 0 1 4.68348e-5 -1 -5.25034e-6 0 0 -1 0 -0.999859 0 0.01679754 0 1 1.74387e-6 0 1 2.18193e-7 -0.9998606 0 0.01670318 0 1 -1.79145e-6 -0.9998591 -7.61243e-6 0.01678729 -0.999935 0 0.01139968 -0.999935 0 0.01139968 -0.999935 0 0.01139968 -0.9999362 0 0.01130145 -0.9999362 0 0.01130145 -0.9999362 0 0.01130145 0.0166679 0 0.9998611 0.01643872 -0.1643903 0.9862585 0.01666545 0 0.9998611 -1 -7.18178e-7 0 -1 1.79587e-6 0 -1 -1.88531e-6 0 -1 -1.13119e-6 0 -1 2.75779e-5 0 -1 2.75778e-5 0 -1 2.74632e-5 0 -0.01657557 -0.1644102 -0.9862528 -0.01663291 0 -0.9998617 -0.01640659 -0.1643896 -0.9862591 0 1 4.68379e-5 -0.01662909 0 -0.9998618 0 1 -1.79145e-6 -0.9998606 0 0.01670324 -0.9998605 0 0.01670318 -0.9998598 4.35904e-6 0.01674795 -0.9998592 -6.34367e-6 0.01678723 -0.9998599 -2.32515e-6 0.01674038 -0.9999296 0 0.01187902 -0.9999295 0 0.0118767 -0.9998599 1.01725e-5 0.01674038 -0.9998598 -8.90097e-6 0.01675033 -1 2.73143e-5 0 -1 2.73143e-5 0 -1 2.71998e-5 0 -0.01657187 -0.1644103 -0.9862529 -0.01640284 -0.1643896 -0.9862591 -0.9998592 -7.61241e-6 0.01678723 -1 -1.19677e-6 0 -1 4.78707e-6 0 0.01666301 0 0.9998612 -1 -4.06901e-6 0 -0.3417431 0.9397935 0 -0.341743 0.9397935 0 1 0 0 -0.9701426 0.2425358 0 0 0.2425356 -0.9701426 1 0 0 1 -3.8147e-7 0 1 -1.90735e-6 0 0 1 -6.96988e-7 0.9998608 0 -0.01669371 0.9998608 0 -0.01669371 0.99986 4.39598e-6 -0.0167399 0.9998598 -2.5598e-6 -0.01674801 0 1 -3.19e-7 0.9998603 0 -0.01672106 0 1 3.44006e-6 -0.01678514 0 -0.9998592 -0.01678866 0 -0.9998591 -0.01655679 -0.1644086 -0.9862534 0.01654553 -0.1644052 0.9862541 0.01646035 -0.1643927 0.9862576 0.01677745 0 0.9998593 0.01677262 0 0.9998594 1 9.53674e-7 0 1 2.38419e-6 0 0.9998603 0 -0.01672106 0.99986 4.39598e-6 -0.0167399 0.9998598 -2.5598e-6 -0.01674801 -0.01653403 -0.1644055 -0.9862543 -0.01655805 -0.1644085 -0.9862534 -0.01678693 0 -0.9998591 0.9998599 9.56853e-6 -0.0167399 0.9998599 6.86608e-6 -0.01674133 0 1 -8.88078e-7 -0.01678693 0 -0.9998591 -0.09987366 -0.9950001 1.25966e-5 -0.0998885 -0.9949986 0 -0.09988802 -0.9949988 0 -0.09987401 -0.9950001 1.11724e-5 -0.09988397 -0.9949992 -6.03005e-6 0.7491431 0.001776039 -0.6624059 0.9659242 -0.001937091 -0.258818 0.9710052 0 -0.2390584 0.7071034 -0.003530859 -0.7071014 0.356184 0.00320518 -0.9344105 -0.09988224 -0.9949994 -1.30043e-5 0.2588141 -0.004769325 -0.9659154 -0.1181577 0.004279017 -0.9929857 -0.09988254 -0.9949992 -5.79224e-6 0 -1 7.78959e-7 -0.09990382 -0.9949971 0 -0.2588123 -0.005666375 -0.965911 -0.5656769 0.005013048 -0.8246118 -0.7070922 -0.006233155 -0.707094 -0.8845814 0.005488574 -0.4663537 -0.9659065 -0.006516993 -0.2588093 -0.9999842 0.005629777 0 -0.9659065 -0.006516575 0.2588092 -0.8845815 0.005488991 0.4663535 -0.7070922 -0.006233572 0.707094 0.7491427 0.001776039 0.6624063 0.9659242 -0.001937091 0.2588179 0.7071032 -0.003531038 0.7071015 0.9710053 0 0.2390582 -0.09986239 -0.9950013 0 -0.09982413 -0.9950051 0 0.3561851 0.003204941 0.9344099 -0.09988415 -0.9949991 0 -0.09986072 -0.9950015 0 0.2588142 -0.004769325 0.9659155 -0.1181579 0.004279017 0.9929857 -0.09988534 -0.9949989 0 -0.0998823 -0.9949992 0 -0.09988278 -0.9949993 0 0.7491443 0.001775622 -0.6624045 0.7071036 -0.003530919 -0.7071012 0.3561837 0.00320518 -0.9344105 -0.1181578 0.004279017 -0.9929857 0.2588133 -0.004769325 -0.9659156 -0.2588123 -0.005666434 -0.965911 -0.565676 0.005013048 -0.8246123 -0.09990233 -0.9949973 0 0.9659242 -0.001937091 -0.2588181 -0.7070926 -0.006233155 -0.7070936 -0.8845818 0.005488991 -0.4663528 -0.09990322 -0.9949972 0 -0.9659063 -0.006516993 -0.25881 -0.9999842 0.005629777 0 -0.9659067 -0.00651735 0.2588084 -0.8845812 0.005488991 0.4663543 -0.707091 -0.006233394 0.7070952 0.7491434 0.001776039 0.6624054 0.9659243 -0.001937091 0.2588177 0.707102 -0.003531038 0.7071028 0.2588149 -0.004769146 0.9659153 0.3561853 0.00320518 0.9344098 -0.2588154 -0.005666255 0.9659103 -0.565676 0.005013465 0.8246123 -0.1181578 0.004279017 0.9929857 -0.0998848 -0.9949991 0 -0.09988534 -0.9949989 0 -0.09988236 -0.9949992 0 -0.09988123 -0.9949994 0 -0.09986132 -0.9950014 0 -0.09986138 -0.9950014 0 0.7491415 0.001776099 -0.6624078 0.7071045 -0.003530919 -0.7071003 0.356182 0.00320518 -0.9344112 -0.118157 0.004279017 -0.9929857 -0.2588137 -0.005666434 -0.9659106 -0.5656782 0.005013465 -0.8246109 -0.0999034 -0.9949972 0 -0.09990298 -0.9949972 0 -0.8845807 0.005488574 -0.4663549 -0.707091 -0.006233155 -0.7070952 -0.9659065 -0.006516993 -0.2588092 -0.9999842 0.005629718 0 -0.1478545 -0.9890092 0 -0.1478543 -0.9890092 0 -0.1478544 -0.9890092 0 -0.7930352 -0.609176 0 0.7930445 -0.6091638 0 0.793046 -0.6091618 0 0.7930442 -0.6091641 0 -0.1478547 -0.9890092 0 -0.1478545 -0.9890092 0 -0.7930349 -0.6091762 0 0.7930455 -0.6091626 0 -0.5222344 -0.852802 0 0.5222344 -0.852802 0 0.1821244 -0.9832755 0 -0.1821242 -0.9832755 0 -0.1821246 -0.9832755 0 0.1821247 -0.9832755 0 -0.7930358 -0.6091752 0 -0.5222342 -0.8528023 0 0.5222342 -0.8528023 0 0 -1 -1.16154e-6 -0.8845807 0.005488991 0.4663549 -0.5656775 0.005013465 0.8246114 -0.09990292 -0.9949973 0 -0.2588139 -0.005666434 0.9659107 0.2588104 -0.004769146 0.9659164 0.7071011 -0.003530621 0.7071036 0.3561855 0.003205418 0.9344098 0.7491439 0.001776039 0.662405 0.9659244 -0.001937091 0.2588173 -0.099873 -0.9950003 -1.03306e-5 -0.09988409 -0.9949991 4.99257e-6 -0.09988242 -0.9949992 1.10262e-5 -0.1181533 0.004279136 0.9929862 -0.0998826 -0.9949993 3.46885e-6 -0.09987348 -0.9950002 -1.24128e-5 -0.09988826 -0.9949988 0 0.9710051 0 0.2390591 0.9710056 0 -0.2390571 -0.09982186 -0.9950053 0 0.9710052 0 0.2390586 -0.09982413 -0.9950051 0 -0.09982192 -0.9950053 0 -1 -3.24704e-7 0 0.01651847 -0.1644042 0.9862548 0.01644986 -0.1643903 0.9862583 0.01667273 0 0.9998611 -0.9998599 1.01725e-5 0.01674038 -0.9998598 -8.90097e-6 0.01675033 -1 -2.62517e-6 0 -0.3417431 0.9397934 0 0 0.2425356 0.9701426 -0.9701426 0.2425356 0 -0.9701424 0.242536 0 -1.99416e-7 0 -1 0 -1 1.49201e-7 1 2.8715e-4 0 0.9940728 -8.53317e-4 0.1087137 0.9940761 -8.52365e-4 -0.1086839 1 2.87153e-4 0 0.994073 -8.53304e-4 0.108712 0.9659113 -0.0056234 0.2588124 0.9163907 0.004698932 0.4002575 0.09280449 -0.9956844 0 0.9659111 -0.0056234 -0.2588129 0.9163904 0.004698932 -0.4002584 0.09280425 -0.9956844 0 0.6150634 0.004068136 0.7884672 0.7070971 -0.00505805 0.7070984 0.09275817 -0.9956887 0 0 -1 -1.40954e-6 0 -1 8.13801e-7 0.2588133 -0.004358053 0.9659175 0 -1 2.96446e-6 0.1653692 0.003291904 0.9862263 0.09278589 -0.9956862 0 0.09275805 -0.9956887 0 -0.2588152 -0.003512084 0.9659206 -0.3241484 0.002356648 0.9460033 -0.7071038 -0.0025056 0.7071055 -0.9659258 -0.001332342 0.2588159 -0.7354725 0.001259505 0.6775534 0.09275645 -0.9956889 0 0.09283202 -0.9956819 0 0.09275668 -0.9956888 0 0.09278607 -0.9956861 0 0.09283173 -0.9956819 0 0.6150633 0.004068136 -0.7884674 0.2588117 -0.004358053 -0.965918 0.1653701 0.003291904 -0.9862262 -0.3241447 0.002356648 -0.9460046 -0.2588183 -0.003512024 -0.9659197 -0.7071046 -0.0025056 -0.7071046 -0.7354745 0.001259326 -0.6775513 0 -1 1.48223e-6 0 -1 -1.71152e-6 0.707098 -0.005058169 -0.7070976 0 -1 1.56616e-6 -0.9659254 -0.001332402 -0.2588171 0.9659111 -0.00562334 0.2588128 0 -1 8.13802e-7 -0.969365 0 0.2456249 -0.9659254 -0.001332461 0.2588171 -0.9693648 0 -0.2456257 0 -1 -1.40954e-6 0.707098 -0.00505799 0.7070976 0.9163908 0.004698932 0.4002574 0.09280443 -0.9956844 0 0.6150651 0.004068195 0.7884659 0.09276211 -0.9956884 6.41147e-6 0.2588117 -0.004358053 0.965918 0 -1 2.96445e-6 -0.707103 -0.002505481 0.7071062 -0.7354741 0.001259386 0.6775517 -0.3241505 0.002356827 0.9460026 -0.2588152 -0.003512024 0.9659206 0.1653699 0.003291904 0.9862262 0.09278529 -0.9956862 -6.45068e-6 0.09285533 -0.9956796 -6.6612e-5 0.09278786 -0.9956859 6.82113e-6 0.09277343 -0.9956873 -1.04241e-5 0.09280115 -0.9956848 1.18843e-5 0.09286117 -0.9956791 0 0.09278225 -0.9956864 0 0.09286117 -0.9956791 0 -0.9693648 0 0.2456257 -0.9693649 0 -0.2456253 0.09286117 -0.9956791 0 -0.9659256 -0.001332402 -0.2588167 -0.7071046 -0.002501785 -0.7071046 -0.7354472 0.001259505 -0.6775808 0 -1 -1.71152e-6 0 -1 1.56616e-6 0.9940758 -8.52385e-4 -0.1086864 0.7070996 -0.005058169 -0.707096 0.9163907 0.004698932 -0.4002575 0 -1 1.48222e-6 0.09280449 -0.9956845 0 0.09280413 -0.9956844 0 0.9940758 -8.52378e-4 0.1086856 0.9659111 -0.0056234 0.2588128 0.9163906 0.004699051 0.4002577 0.6150639 0.004068136 0.7884669 0.707098 -0.00505805 0.7070976 0.09275811 -0.9956887 0 0.2588148 -0.004358053 0.9659172 0 -1 2.96445e-6 0.1653668 0.003291904 0.9862267 0.09275817 -0.9956887 0 0.09278589 -0.9956861 0 -0.3241975 0.002361118 0.9459865 -0.7071046 -0.002501845 0.7071046 -0.9659256 -0.001332402 0.2588165 -0.7354468 0.001259624 0.6775813 0.0927565 -0.9956889 0 0.09275668 -0.9956888 0 0.09283202 -0.9956819 0 0.09278595 -0.9956862 0 0.09283185 -0.9956818 0 0.6150628 0.004068136 -0.7884676 0.2588133 -0.004358053 -0.9659175 0.1653692 0.003291845 -0.9862263 -0.3241987 0.002361178 -0.9459861 -0.2588168 -0.003512144 -0.9659201 0.09286105 -0.9956791 0 0.09280055 -0.9956848 -1.15596e-5 -0.9659256 -0.001332402 -0.2588165 -0.7354477 0.001259624 -0.6775804 0.09277373 -0.9956873 1.08103e-5 0.09278786 -0.995686 -7.56091e-6 -0.3241965 0.002361118 -0.9459868 -0.7071046 -0.002501845 -0.7071046 0.09285938 -0.9956793 7.92312e-5 -0.2588157 -0.003512084 -0.9659205 0.165367 0.003291904 -0.9862267 0.09278488 -0.9956862 7.13904e-6 0.2588144 -0.004358053 -0.9659172 0.6150633 0.004068136 -0.7884673 0.7070984 -0.00505805 -0.7070972 0.9163907 0.004698932 -0.4002575 0 -1 1.56616e-6 0.09276252 -0.9956883 -6.94339e-6 0.09280437 -0.9956844 0 0.994073 -8.53304e-4 -0.108712 0.01650029 -0.1643924 0.986257 0 -0.164399 0.986394 0 -0.1643989 0.986394 0.01654279 -0.1643991 0.9862552 0.01676774 0 0.9998595 0.01677745 0 0.9998593 0 -0.164399 -0.9863939 0.01654833 -0.1644051 0.9862541 0.01645487 -0.1643929 0.9862577 0.01677256 0 0.9998593 0 1 -8.88078e-7 0.9998599 6.84124e-6 -0.01674133 0.99986 9.60032e-6 -0.0167399 -0.01653534 -0.1644057 -0.9862542 -0.2588139 -0.005666255 0.9659107 -0.5656759 0.005013048 0.8246126</float_array>
          <technique_common>
            <accessor source="#shape0_018-mesh-normals-array" count="383" stride="3">
              <param name="X" type="float"/>
              <param name="Y" type="float"/>
              <param name="Z" type="float"/>
            </accessor>
          </technique_common>
        </source>
        <vertices id="shape0_018-mesh-vertices">
          <input semantic="POSITION" source="#shape0_018-mesh-positions"/>
        </vertices>
        <triangles material="R3MPerception-Metallic-material" count="994">
          <input semantic="VERTEX" source="#shape0_018-mesh-vertices" offset="0"/>
          <input semantic="NORMAL" source="#shape0_018-mesh-normals" offset="1"/>
          <p>0 0 1 0 2 0 3 1 0 1 4 1 0 1 2 1 4 1 5 2 6 2 7 2 5 2 8 2 6 2 7 2 9 2 5 2 1 3 10 3 2 3 11 4 12 4 13 4 14 2 15 2 16 2 16 2 17 2 14 2 17 2 16 2 18 2 19 4 11 4 13 4 19 4 13 4 20 4 13 4 21 4 20 4 22 5 23 5 24 5 25 6 26 6 27 6 28 7 29 7 30 7 29 8 31 8 30 8 32 9 22 9 24 9 33 10 32 10 34 10 32 11 24 11 34 11 28 12 30 12 35 12 30 13 36 13 37 13 30 14 37 14 35 14 8 2 38 2 6 2 39 4 40 4 41 4 42 15 43 15 44 15 45 16 39 16 41 16 46 2 14 2 47 2 14 2 17 2 47 2 48 1 49 1 50 1 49 1 51 1 50 1 52 2 46 2 53 2 46 17 47 17 53 17 54 18 46 18 52 18 55 18 54 18 52 18 56 2 54 2 57 2 54 2 55 2 57 2 58 15 59 15 60 15 59 15 61 15 60 15 62 2 55 2 63 2 55 2 62 2 57 2 56 2 57 2 64 2 65 18 57 18 62 18 66 1 67 1 68 1 63 2 69 2 62 2 70 18 65 18 62 18 71 15 72 15 73 15 72 15 74 15 73 15 75 1 66 1 68 1 76 2 65 2 70 2 77 2 76 2 70 2 78 4 79 4 80 4 79 4 81 4 80 4 82 2 64 2 83 2 82 2 56 2 64 2 83 2 64 2 69 2 63 2 83 2 69 2 84 4 85 4 86 4 87 15 88 15 89 15 90 2 91 2 83 2 83 2 91 2 82 2 35 19 92 19 93 19 85 20 94 20 86 20 88 15 95 15 89 15 96 4 97 4 98 4 97 21 99 21 98 21 100 1 101 1 102 1 36 22 103 22 37 22 101 1 104 1 102 1 45 4 105 4 39 4 105 23 106 23 39 23 93 24 28 24 35 24 93 25 107 26 28 27 93 28 108 29 107 30 109 15 58 15 60 15 26 31 110 31 111 31 26 32 111 32 27 32 110 33 112 33 111 33 113 18 107 18 114 18 107 18 108 18 114 18 61 15 115 15 60 15 113 2 114 2 52 2 116 34 113 34 52 34 116 2 117 2 113 2 117 2 118 2 113 2 119 35 18 35 118 35 118 2 117 2 119 2 17 36 18 36 120 36 18 37 119 37 120 37 121 0 122 0 123 0 122 3 124 3 123 3 121 1 123 1 125 1 120 2 126 2 17 2 126 2 120 2 127 2 128 4 129 4 130 4 129 4 131 4 130 4 132 2 133 2 134 2 135 1 121 1 125 1 134 38 136 39 132 40 134 2 137 2 136 2 128 4 130 4 138 4 130 4 139 4 138 4 140 41 141 41 142 41 137 2 143 2 136 2 144 42 142 42 145 42 144 43 140 43 142 43 146 15 147 15 148 15 149 44 150 44 151 44 150 4 152 4 151 4 153 45 144 45 145 45 149 4 154 4 150 4 154 46 155 46 150 46 156 47 157 47 158 47 157 48 159 48 158 48 160 1 161 1 162 1 163 1 160 1 162 1 164 2 165 2 166 2 164 2 167 2 165 2 166 2 168 2 164 2 156 49 158 49 169 49 170 4 171 4 172 4 171 21 173 21 172 21 174 2 168 2 166 2 175 4 176 4 177 4 178 15 179 15 180 15 181 2 166 2 182 2 166 2 165 2 182 2 179 15 183 15 180 15 184 50 185 50 169 50 185 51 156 51 169 51 169 19 186 19 184 19 176 20 187 20 177 20 184 52 188 52 185 52 184 53 189 53 188 53 190 15 191 15 192 15 193 31 194 31 195 31 196 6 193 6 197 6 193 32 195 32 197 32 185 54 198 54 156 54 198 55 199 55 156 55 200 2 127 2 201 2 200 2 202 2 127 2 202 2 126 2 127 2 201 2 203 2 200 2 204 0 205 0 206 0 205 3 207 3 206 3 204 1 206 1 208 1 126 2 202 2 209 2 210 4 211 4 212 4 211 4 213 4 212 4 214 2 215 2 216 2 217 1 204 1 208 1 216 56 218 57 214 58 216 2 219 2 218 2 210 4 212 4 220 4 212 4 221 4 220 4 222 59 223 59 224 59 219 2 225 2 218 2 226 45 224 45 227 45 226 60 222 60 224 60 228 15 229 15 230 15 231 44 232 44 233 44 232 4 234 4 233 4 235 45 226 45 227 45 231 4 236 4 232 4 236 46 237 46 232 46 238 47 239 47 240 47 239 48 241 48 240 48 242 1 243 1 244 1 238 49 240 49 245 49 246 4 247 4 248 4 247 21 249 21 248 21 250 1 242 1 244 1 251 61 252 61 245 61 252 51 238 51 245 51 245 19 253 19 251 19 254 15 255 15 256 15 257 15 254 15 256 15 258 2 259 2 260 2 258 2 260 2 261 2 262 4 263 4 264 4 258 2 265 2 266 2 261 2 265 2 258 2 263 20 267 20 264 20 251 52 268 52 252 52 251 53 269 53 268 53 270 15 271 15 272 15 272 15 273 15 270 15 274 2 266 2 275 2 266 2 265 2 275 2 261 2 276 2 265 2 277 4 278 4 279 4 280 15 281 15 282 15 276 2 261 2 283 2 283 2 284 2 276 2 285 1 286 1 287 1 286 1 288 1 287 1 289 4 277 4 279 4 290 15 280 15 282 15 291 2 292 2 293 2 292 2 294 2 293 2 293 18 294 18 275 18 294 18 284 18 275 18 283 2 295 2 284 2 295 2 275 2 284 2 295 2 274 2 275 2 274 18 295 18 296 18 295 18 297 18 296 18 298 1 299 1 300 1 299 1 301 1 300 1 302 62 297 62 303 62 304 63 297 63 302 63 304 2 296 2 297 2 297 2 203 2 303 2 203 2 201 2 303 2 303 2 305 2 302 2 194 64 306 64 195 64 303 18 188 18 305 18 188 18 189 18 305 18 307 15 308 15 192 15 191 15 309 15 192 15 309 15 307 15 192 15 181 2 182 2 310 2 310 2 311 2 181 2 311 18 312 18 302 18 312 2 311 2 313 2 311 2 310 2 313 2 314 18 315 18 310 18 315 18 313 18 310 18 316 15 317 15 318 15 317 15 319 15 318 15 320 4 321 4 322 4 323 4 320 4 322 4 324 2 325 2 314 2 325 2 315 2 314 2 326 1 327 1 328 1 327 1 329 1 328 1 167 2 312 2 313 2 167 2 313 2 165 2 330 1 331 1 332 1 331 1 333 1 332 1 312 18 116 18 302 18 53 63 116 63 52 63 53 65 302 65 116 65 302 2 53 2 304 2 334 4 335 4 336 4 337 66 338 66 339 66 338 67 340 67 339 67 341 1 342 1 343 1 344 4 337 4 345 4 337 4 339 4 345 4 346 1 341 1 343 1 347 68 348 68 349 68 350 15 351 15 352 15 351 15 353 15 352 15 340 66 354 66 339 66 355 2 356 2 357 2 356 2 358 2 357 2 344 4 345 4 359 4 345 4 360 4 359 4 359 4 361 4 344 4 362 68 363 68 364 68 360 4 365 4 359 4 366 68 367 68 368 68 369 15 370 15 371 15 370 15 372 15 371 15 373 15 374 15 375 15 376 15 373 15 375 15 377 68 366 68 368 68 378 4 379 4 380 4 336 4 380 4 381 4 379 4 382 4 380 4 380 4 382 4 381 4 383 68 362 68 364 68 336 4 381 4 384 4 381 4 385 4 384 4 386 69 387 69 388 69 389 1 390 1 391 1 392 2 393 2 394 2 393 2 395 2 394 2 396 4 397 4 398 4 398 4 399 4 396 4 398 4 400 4 399 4 401 69 386 69 388 69 396 4 402 4 397 4 403 1 404 1 405 1 406 70 407 70 408 70 399 4 409 4 396 4 409 4 410 4 396 4 411 71 412 71 413 71 414 68 411 68 413 68 404 1 415 1 405 1 407 70 416 70 408 70 417 4 418 4 419 4 417 4 419 4 420 4 420 4 421 4 417 4 421 4 384 4 417 4 422 68 423 68 424 68 422 68 425 68 423 68 425 68 426 68 423 68 424 68 423 68 427 68 424 68 428 68 422 68 428 68 429 68 422 68 430 18 431 18 432 18 431 18 433 18 432 18 434 1 435 1 436 1 435 1 437 1 436 1 438 72 439 72 440 72 439 68 441 68 440 68 442 15 443 15 444 15 443 15 445 15 444 15 446 68 438 68 447 68 438 68 440 68 447 68 441 68 448 68 440 68 448 68 449 68 440 68 449 68 447 68 440 68 446 68 447 68 449 68 445 15 450 15 444 15 451 4 452 4 453 4 449 68 454 68 446 68 454 68 449 68 448 68 455 68 448 68 441 68 454 73 448 73 455 73 452 74 456 74 453 74 455 68 457 68 454 68 458 15 459 15 460 15 459 15 461 15 460 15 462 75 463 75 464 75 465 15 466 15 467 15 462 76 468 76 463 76 463 77 469 77 464 77 463 78 470 78 469 78 471 4 472 4 473 4 472 79 474 79 473 79 455 68 475 68 457 68 476 4 477 4 478 4 479 1 480 1 481 1 480 1 482 1 481 1 470 80 483 80 469 80 470 80 484 80 483 80 485 81 476 81 478 81 478 4 486 4 485 4 487 82 488 82 489 82 488 83 490 83 489 83 486 4 491 4 485 4 429 68 428 68 492 68 429 68 493 68 494 68 492 68 493 68 429 68 487 84 489 84 495 84 496 68 493 68 497 68 493 68 492 68 497 68 498 85 499 85 500 85 499 86 501 86 500 86 498 87 500 87 502 87 424 68 503 68 428 68 504 88 498 88 502 88 505 18 506 18 507 18 508 68 424 68 427 68 509 15 510 15 511 15 511 15 512 15 509 15 513 18 514 18 515 18 516 15 517 15 518 15 510 15 519 15 511 15 519 15 520 15 511 15 521 18 513 18 515 18 522 68 523 68 524 68 523 89 525 89 526 89 523 68 526 68 524 68 527 4 528 4 529 4 522 68 524 68 530 68 530 68 531 68 522 68 530 68 524 68 526 68 525 68 532 68 526 68 532 68 533 68 526 68 533 68 530 68 526 68 534 1 535 1 536 1 535 1 537 1 536 1 538 81 539 81 540 81 539 4 541 4 540 4 540 4 542 4 538 4 543 68 533 68 532 68 531 90 533 90 543 90 531 68 530 68 533 68 544 1 545 1 546 1 543 68 547 68 531 68 543 68 548 68 547 68 549 91 550 91 551 91 545 1 552 1 546 1 553 4 554 4 555 4 554 79 556 79 555 79 557 15 558 15 559 15 560 75 561 75 562 75 561 92 563 92 562 92 561 93 549 93 563 93 560 76 564 76 561 76 558 15 565 15 559 15 549 91 551 91 563 91 566 94 567 94 568 94 567 95 569 95 568 95 567 96 570 96 569 96 563 97 571 97 562 97 571 98 572 98 562 98 573 99 574 99 575 99 497 68 576 68 577 68 576 68 578 68 577 68 576 68 579 68 578 68 574 4 580 4 575 4 579 68 581 68 578 68 570 100 582 100 569 100 542 4 583 4 538 4 584 68 578 68 508 68 578 68 584 68 577 68 508 68 427 68 584 68 585 4 586 4 409 4 586 4 410 4 409 4 587 15 588 15 589 15 588 15 590 15 589 15 591 2 592 2 593 2 592 2 594 2 593 2 595 15 596 15 597 15 587 15 589 15 598 15 599 4 600 4 601 4 600 4 602 4 601 4 596 15 603 15 597 15 400 4 604 4 399 4 605 68 606 68 607 68 606 68 608 68 607 68 598 15 609 15 587 15 610 15 611 15 598 15 598 15 611 15 609 15 612 15 609 15 376 15 613 15 609 15 612 15 587 15 609 15 613 15 614 15 376 15 375 15 376 15 615 15 612 15 376 15 616 15 617 15 614 15 616 15 376 15 376 15 617 15 615 15 618 4 619 4 620 4 614 15 621 15 616 15 622 4 618 4 620 4 623 68 347 68 349 68 616 15 624 15 617 15 625 101 626 101 17 101 17 102 627 102 625 102 126 103 627 103 17 103 626 104 628 104 17 104 628 105 629 105 17 105 630 106 631 106 632 106 632 107 633 107 630 107 632 108 634 108 633 108 630 109 635 109 631 109 636 110 637 110 638 110 628 111 639 111 629 111 640 18 641 18 642 18 642 18 643 18 640 18 643 18 642 18 644 18 637 112 636 112 645 112 640 18 646 18 641 18 645 113 647 113 637 113 639 114 648 114 629 114 649 115 629 115 650 115 629 18 651 18 650 18 648 116 651 116 629 116 645 117 652 117 647 117 652 118 653 118 647 118 653 119 652 119 654 119 643 120 650 120 651 120 643 121 655 121 650 121 655 18 643 18 644 18 655 122 656 122 650 122 649 18 650 18 656 18 656 123 655 123 657 123 658 18 657 18 655 18 655 18 644 18 658 18 657 124 659 124 656 124 656 18 660 18 649 18 656 18 659 18 660 18 661 125 662 125 663 125 658 18 664 18 657 18 664 18 665 18 657 18 666 126 667 126 668 126 666 127 633 127 667 127 669 128 670 128 671 128 633 129 634 129 667 129 672 130 673 130 674 130 674 131 673 131 625 131 670 132 669 132 675 132 676 133 677 133 672 133 672 134 674 134 676 134 678 135 670 135 675 135 679 18 665 18 664 18 678 136 675 136 680 136 676 137 681 137 677 137 681 138 682 138 677 138 682 139 683 139 677 139 684 140 685 140 686 140 684 141 687 141 685 141 688 142 689 142 690 142 691 143 692 143 689 143 689 144 688 144 691 144 691 145 693 145 692 145 693 146 694 146 692 146 682 147 695 147 683 147 696 18 697 18 698 18 696 18 698 18 699 18 686 148 700 148 684 148 699 18 701 18 696 18 701 18 699 18 702 18 694 149 693 149 703 149 701 150 660 150 695 150 659 18 695 18 660 18 695 151 659 151 683 151 701 152 704 152 660 152 704 18 701 18 702 18 704 153 705 153 660 153 660 18 705 18 649 18 705 154 704 154 706 154 707 18 706 18 704 18 704 18 702 18 707 18 706 155 708 155 705 155 709 156 710 156 711 156 707 18 712 18 706 18 712 18 713 18 706 18 714 157 715 157 716 157 714 158 700 158 715 158 717 159 718 159 719 159 720 160 718 160 721 160 718 161 717 161 721 161 722 18 713 18 712 18 723 162 710 162 720 162 710 163 723 163 711 163 720 164 721 164 723 164 724 165 725 165 726 165 724 166 727 166 725 166 727 167 728 167 725 167 728 168 729 168 725 168 726 169 730 169 724 169 726 170 731 170 730 170 732 171 733 171 734 171 732 172 735 172 733 172 736 173 737 173 738 173 739 174 740 174 737 174 737 144 736 144 739 144 739 175 741 175 740 175 741 176 742 176 740 176 728 177 743 177 729 177 743 178 708 178 729 178 744 179 745 179 743 179 742 180 741 180 746 180 705 18 743 18 745 18 705 18 708 18 743 18 747 18 748 18 749 18 747 18 750 18 748 18 749 18 744 18 747 18 744 181 751 181 745 181 751 18 744 18 752 18 744 18 749 18 752 18 751 182 753 182 745 182 745 18 754 18 705 18 745 18 753 18 754 18 705 18 754 18 649 18 649 2 754 2 755 2 612 15 615 15 756 15 615 15 757 15 756 15 758 183 755 183 759 183 758 184 760 184 755 184 760 185 761 185 755 185 754 2 759 2 755 2 762 18 761 18 763 18 761 18 760 18 763 18 764 15 612 15 756 15 765 186 760 186 758 186 766 15 767 15 768 15 768 15 769 15 766 15 762 18 763 18 770 18 771 187 772 187 773 187 774 18 762 18 770 18 775 68 776 68 777 68 778 18 774 18 770 18 778 18 779 18 774 18 779 18 780 18 774 18 781 1 782 1 783 1 784 68 775 68 777 68 785 18 780 18 779 18 786 1 787 1 788 1 789 188 790 188 791 188 790 189 792 189 791 189 759 185 780 185 785 185 781 1 783 1 793 1 783 1 794 1 793 1 759 190 785 190 795 190 795 191 758 191 759 191 770 18 795 18 778 18 770 18 758 18 795 18 796 15 797 15 798 15 799 192 795 192 785 192 800 1 801 1 802 1 765 186 758 186 803 186 802 1 804 1 800 1 773 193 805 193 771 193 804 1 806 1 800 1 806 1 807 1 800 1 803 194 808 194 765 194 808 194 803 194 809 194 767 15 810 15 768 15 773 195 811 195 805 195 810 15 812 15 768 15 811 195 813 195 805 195 814 1 807 1 806 1 815 196 816 196 817 196 818 197 809 197 815 197 818 198 808 198 809 198 819 15 812 15 810 15 815 199 817 199 818 199 820 1 786 1 788 1 799 200 785 200 821 200 820 1 788 1 822 1 821 201 823 201 799 201 821 201 824 201 823 201 788 1 825 1 822 1 826 202 789 202 827 202 789 202 791 202 827 202 825 1 828 1 822 1 829 197 824 197 830 197 824 198 829 198 823 198 798 15 831 15 832 15 831 15 833 15 832 15 834 15 798 15 832 15 834 15 796 15 798 15 830 199 835 199 829 199 830 196 836 196 835 196 753 203 837 203 754 203 793 1 838 1 781 1 793 1 839 1 838 1 840 204 841 204 753 204 753 123 751 123 840 123 841 18 837 18 753 18 842 156 843 156 844 156 845 18 840 18 751 18 845 18 846 18 840 18 846 18 847 18 840 18 843 205 848 205 844 205 841 206 849 206 837 206 848 207 843 207 850 207 851 18 847 18 846 18 850 208 852 208 853 208 854 209 852 209 855 209 852 210 854 210 853 210 856 211 857 211 858 211 856 212 859 212 857 212 751 18 752 18 845 18 126 213 860 213 861 213 126 214 837 214 860 214 837 215 862 215 860 215 850 216 853 216 848 216 849 217 862 217 837 217 839 1 863 1 838 1 839 1 864 1 863 1 865 2 126 2 209 2 861 218 866 218 126 218 866 219 627 219 126 219 859 220 867 220 857 220 734 148 859 148 732 148 734 221 867 221 859 221 866 222 730 222 627 222 686 108 868 108 700 108 700 223 868 223 715 223 730 224 731 224 627 224 627 225 674 225 625 225 865 226 209 226 869 226 870 227 871 227 872 227 871 228 873 228 872 228 869 2 874 2 865 2 871 229 875 229 873 229 875 229 876 229 873 229 252 230 877 230 238 230 877 231 878 231 238 231 874 2 296 2 865 2 874 2 879 2 296 2 874 18 268 18 879 18 865 232 296 232 304 232 880 233 881 233 882 233 863 1 883 1 838 1 273 15 884 15 270 15 884 15 885 15 270 15 268 18 269 18 879 18 886 4 887 4 888 4 887 4 889 4 888 4 890 68 891 68 892 68 891 68 893 68 892 68 883 1 894 1 838 1 838 1 895 1 781 1 896 1 897 1 898 1 897 1 899 1 898 1 900 4 882 4 901 4 900 4 902 4 882 4 900 4 903 4 904 4 901 4 903 4 900 4 905 68 906 68 907 68 908 15 909 15 910 15 906 68 911 68 907 68 881 233 901 233 882 233 909 15 912 15 910 15 913 4 334 4 336 4 914 4 915 4 913 4 913 4 384 4 914 4 913 4 336 4 384 4 915 4 888 4 913 4 384 4 421 4 914 4 420 4 916 4 421 4 917 15 918 15 919 15 918 15 920 15 919 15 921 68 922 68 923 68 924 234 925 234 926 234 927 68 921 68 923 68 928 4 929 4 930 4 931 4 928 4 930 4 932 2 933 2 934 2 925 234 935 234 926 234 931 4 930 4 936 4 930 4 937 4 936 4 936 4 938 4 931 4 939 2 932 2 934 2 940 15 941 15 942 15 943 235 944 235 945 235 944 236 946 236 945 236 947 1 948 1 895 1 914 4 949 4 915 4 915 4 886 4 888 4 948 237 950 237 895 237 950 1 951 1 895 1 895 1 951 1 781 1 952 18 953 18 954 18 952 238 955 238 953 238 952 18 956 18 957 18 954 18 956 18 952 18 958 239 959 239 960 239 959 240 961 240 960 240 955 18 962 18 953 18 958 241 960 241 963 241 964 18 965 18 954 18 954 18 965 18 956 18 966 242 967 242 968 242 967 243 969 243 968 243 957 18 956 18 970 18 969 244 971 244 968 244 971 245 969 245 972 245 973 246 965 246 964 246 960 247 974 247 963 247 974 248 975 248 963 248 973 249 964 249 976 249 977 250 978 250 979 250 977 251 980 251 978 251 976 252 981 252 973 252 982 253 983 253 984 253 982 18 985 18 983 18 984 254 986 254 982 254 979 255 987 255 977 255 988 18 989 18 985 18 985 256 989 256 983 256 987 257 979 257 990 257 991 258 981 258 992 258 981 259 976 259 992 259 993 260 987 260 990 260 993 261 990 261 994 261 994 262 995 262 993 262 984 263 983 263 996 263 995 264 994 264 997 264 996 265 998 265 999 265 1000 266 998 266 991 266 998 267 1000 267 999 267 1001 268 991 268 992 268 1001 269 1000 269 991 269 1002 270 1003 270 1004 270 1002 271 1005 271 1003 271 1005 272 1006 272 1003 272 1007 273 1008 273 1006 273 1006 274 1005 274 1007 274 1007 275 1009 275 1008 275 1009 276 1010 276 1008 276 1011 277 1012 277 1013 277 1011 18 1014 18 1012 18 1013 278 1015 278 1011 278 975 279 974 279 1016 279 1015 280 1013 280 1017 280 999 281 1015 281 1018 281 1018 18 1015 18 1017 18 961 282 1019 282 960 282 1018 283 1017 283 1020 283 1021 284 1018 284 1022 284 1018 285 1023 285 1022 285 1021 286 999 286 1018 286 1020 287 1023 287 1018 287 1024 288 1025 288 1026 288 1019 289 961 289 1027 289 1020 18 1028 18 1023 18 1029 290 962 290 955 290 1024 291 1026 291 1030 291 1031 292 1029 292 955 292 1030 293 1032 293 1024 293 1033 18 1034 18 1028 18 1028 294 1034 294 1023 294 1035 295 1036 295 1037 295 1036 296 1035 296 1038 296 1037 297 1039 297 1035 297 1037 298 1032 298 1039 298 1032 299 1030 299 1039 299 1040 300 1031 300 955 300 1041 301 1040 301 955 301 1041 302 955 302 1042 302 1022 303 1041 303 1042 303 1021 304 1022 304 1042 304 1043 305 999 305 1021 305 1021 306 1042 306 1043 306 1043 307 996 307 999 307 1043 308 984 308 996 308 1043 309 1044 309 984 309 1043 306 1042 306 1045 306 1043 310 1046 310 1044 310 1045 306 1046 306 1043 306 1044 311 1047 311 984 311 984 18 1047 18 986 18 1048 312 1049 312 1050 312 1049 313 1051 313 1050 313 1052 314 1047 314 1053 314 1047 315 1052 315 986 315 966 316 968 316 1054 316 968 247 1055 247 1054 247 1056 317 1055 317 1057 317 1055 318 1056 318 1054 318 1053 319 1058 319 1052 319 1059 18 1060 18 970 18 1061 320 1059 320 1062 320 1061 321 1060 321 1059 321 970 18 1063 18 957 18 970 18 1060 18 1063 18 1064 322 1065 322 1066 322 1065 323 1067 323 1066 323 1067 324 1065 324 1068 324 1069 325 1070 325 1071 325 1069 326 1072 326 1070 326 1062 327 1073 327 1061 327 1074 287 1075 287 1076 287 1074 18 1077 18 1075 18 1076 283 1078 283 1074 283 1071 328 1079 328 1069 328 1080 18 1081 18 1077 18 1077 329 1081 329 1075 329 1079 330 1071 330 1082 330 1062 331 1083 331 1073 331 1083 332 1084 332 1073 332 1085 298 1079 298 1082 298 1085 333 1082 333 1086 333 1086 334 1087 334 1085 334 1076 335 1075 335 1088 335 1087 336 1086 336 1089 336 1088 337 1090 337 1044 337 1090 338 1091 338 1044 338 1091 339 1090 339 1084 339 1083 340 1092 340 1084 340 1092 341 1091 341 1084 341 1093 342 1094 342 1095 342 1093 343 1096 343 1094 343 1096 344 1097 344 1094 344 1048 345 1050 345 1097 345 1097 346 1096 346 1048 346 1053 18 1098 18 1058 18 1044 347 1046 347 1088 347 1046 284 1076 284 1088 284 1046 309 1099 309 1076 309 1045 348 1099 348 1046 348 1099 349 1100 349 1076 349 1076 18 1100 18 1078 18 1101 350 1102 350 1103 350 1104 351 1099 351 1045 351 496 68 497 68 577 68 496 68 577 68 1105 68 1104 352 1045 352 1106 352 1107 353 1103 353 1108 353 1107 354 1101 354 1103 354 1109 355 1104 355 1106 355 1108 356 1110 356 1107 356 1111 277 1112 277 1113 277 1111 18 1114 18 1112 18 1113 278 1100 278 1111 278 1110 357 1108 357 1115 357 1116 358 1109 358 1106 358 1117 359 1110 359 1115 359 1117 360 1115 360 1118 360 1119 361 1120 361 1121 361 1066 247 1120 247 1122 247 1120 362 1119 362 1122 362 1100 363 1113 363 1078 363 1106 364 1123 364 1116 364 1106 365 1124 365 1123 365 1125 366 1066 366 1122 366 1126 18 1124 18 1106 18 1125 242 1064 242 1066 242 957 18 1063 18 1126 18 1126 18 1106 18 957 18 1127 68 1128 68 1105 68 1105 68 1129 68 1127 68 1130 68 1131 68 1105 68 1131 68 496 68 1105 68 1105 68 1128 68 1130 68 1132 4 1133 4 1134 4 1135 367 1136 367 1137 367 1127 68 1138 68 1128 68 1139 368 1137 368 1140 368 1137 369 1141 369 1140 369 1142 4 1143 4 1134 4 1143 4 1132 4 1134 4 1136 370 1141 370 1137 370 1141 371 1136 371 1144 371 1145 15 1146 15 1141 15 1146 15 1140 15 1141 15 1145 372 1141 372 1144 372 1147 18 1148 18 1149 18 1129 68 1150 68 1127 68 1150 68 1151 68 1127 68 1152 15 1153 15 1154 15 1155 15 1156 15 1157 15 1158 15 1159 15 1160 15 1157 15 1161 15 1155 15 1161 15 1162 15 1155 15 1162 15 1163 15 1155 15 1129 68 1164 68 1150 68 1164 68 426 68 1150 68 426 68 1165 68 1150 68 1166 18 1167 18 1168 18 1169 18 1166 18 1168 18 1170 68 1171 68 1172 68 1171 68 1173 68 1172 68 1174 4 1175 4 1176 4 1177 68 1170 68 1178 68 1170 68 1172 68 1178 68 1173 68 1179 68 1172 68 1178 68 1172 68 1179 68 1180 1 1181 1 1182 1 1179 68 1173 68 1183 68 1183 68 1184 68 1179 68 1184 68 1178 68 1179 68 1177 68 1178 68 1185 68 1185 68 1178 68 1184 68 1183 68 1185 68 1184 68 1181 1 1186 1 1182 1 1187 4 1188 4 1189 4 1190 15 1191 15 1192 15 1193 4 1187 4 1189 4 1194 1 1195 1 1196 1 1197 68 1198 68 1185 68 1185 68 1198 68 1177 68 1199 68 1200 68 1201 68 1201 68 1200 68 1202 68 1203 1 1204 1 1205 1 1195 1 1206 1 1196 1 1207 4 1208 4 1209 4 1208 4 1210 4 1209 4 1211 15 1212 15 1213 15 1202 68 1214 68 1215 68 1214 68 1216 68 1215 68 1216 68 1217 68 1215 68 1215 68 1201 68 1202 68 1212 15 1218 15 1213 15 1175 4 1219 4 1176 4 1220 373 1221 373 1205 373 1221 373 1222 373 1205 373 1202 68 1223 68 1214 68 1204 1 1220 1 1205 1 1223 68 1224 68 1214 68 1225 68 1226 68 1227 68 1225 68 1131 68 1226 68 1131 68 1130 68 1226 68 1227 68 1228 68 1225 68 1228 68 1227 68 1165 68 1229 374 1230 374 1231 374 1230 375 1232 375 1231 375 1229 376 1231 376 1233 376 1234 4 1235 4 1236 4 1237 377 1234 377 1236 377 1238 378 1239 378 464 378 1240 88 1229 88 1233 88 469 379 1238 379 464 379 1241 380 487 380 495 380 1242 18 1243 18 1244 18 425 68 1228 68 1165 68 425 68 1245 68 1228 68 1165 68 426 68 425 68 444 15 1246 15 442 15 680 381 662 381 678 381 662 382 680 382 663 382 528 74 1247 74 529 74</p>
        </triangles>
      </mesh>
    </geometry>
  </library_geometries>
  <library_visual_scenes>
    <visual_scene id="Scene" name="Scene">
      <node id="node" name="node" type="NODE">
        <matrix sid="transform">0.001 0 0 0 0 7.54979e-11 -0.001 0 0 0.001 7.54979e-11 0 0 0 0 1</matrix>
        <instance_geometry url="#shape0_018-mesh" name="node">
          <bind_material>
            <technique_common>
              <instance_material symbol="R3MPerception-Metallic-material" target="#R3MPerception-Metallic-material"/>
            </technique_common>
          </bind_material>
        </instance_geometry>
      </node>
    </visual_scene>
  </library_visual_scenes>
  <scene>
    <instance_visual_scene url="#Scene"/>
  </scene>
</COLLADA>