ply
format ascii 1.0
comment Created in Blender version 4.2.1 LTS
element vertex 1248
property float x
property float y
property float z
property float s
property float t
element face 994
property list uchar uint vertex_indices
end_header
86 -3.0000005 35 0.207998 0.772531
86 -2.000002 41 0.207995 0.803765
86.4 -3.0000005 35 0.205922 0.772531
86 -3 23 0.207995 0.710273
86.4 -3 23 0.20592 0.710273
86 -3.0000005 35 0.701798 0.847844
86 -3.0070004 35 0.701835 0.847841
86 -2.006801 41 0.698386 0.869023
86 -3 23 0.698351 0.806339
86 -2.000002 41 0.698351 0.869026
86.4 -2.000002 41 0.20592 0.803765
86.4 -2.000002 41 0.588081 0.938835
86 -2.000002 41 0.586006 0.938869
86 -2.006801 41 0.586005 0.938834
86.4 -3 23 0.215352 0.401152
86.4 -3.0000005 35 0.215352 0.359504
86.4 -2.000002 41 0.220542 0.33868
86.4 -2.106889e-06 48.2 0.23092 0.313691
86.4 -14.0018 41 0.158262 0.33868
86.4 -14.0018 41 0.587038 0.876563
85.5169 -14.016601 41 0.582455 0.876563
85.3159 -2.018301 41 0.582455 0.938834
85.3159 -2.018301 41 0.577533 0.866213
86 -2.006801 41 0.573983 0.866213
86 -3.0070004 35 0.573997 0.834978
85.5169 -14.016601 41 0.582392 0.679227
85.5001 -13.016699 35 0.582455 0.710429
86.4 -14.0018 41 0.577809 0.679227
85.5001 -13.016699 35 0.163374 0.356032
85.5169 -14.016601 41 0.158185 0.335273
85.3327 -3.0181015 35 0.215259 0.355386
85.3159 -2.018301 41 0.220447 0.334497
85.3327 -3.0181015 35 0.57746 0.834978
85.3327 -3.018101 23 0.57748 0.77272
86 -3.007 23 0.574018 0.77272
85.4831 -11.999999 24.5 0.16865 0.392408
85.3327 -3.018101 23 0.215259 0.397034
85.349106 -3.9999979 24.5 0.210163 0.391891
86 -3.007 23 0.698387 0.806336
85.3327 -3.018101 23 0.220445 0.807228
86 -3.007 23 0.220503 0.803766
86 -3 23 0.220539 0.803766
86 -3 23 0.23092 0.454964
86.4 -3 23 0.23092 0.454964
68 -3 23 0.23092 0.454964
68 -3 23 0.220539 0.897163
86.4 -2.9999995 9 0.215352 0.449741
86.4 -2.6226837e-07 6.000001 0.23092 0.460153
68 -3 23 0.966771 0.109504
86.4 -3 23 0.966771 0.204986
68 -2.9999995 9 0.894137 0.109505
86.4 -2.9999995 9 0.894137 0.204987
86.4 -13 8.999999 0.16346 0.449741
86.4 -7.7499976 6.0000005 0.190704 0.460153
68 -2.9999995 9 0.215352 0.378758
68 -13 8.999999 0.16346 0.378758
68 -3 23 0.215352 0.330168
68 -3.5000005 10 0.212758 0.375287
68 -13.000001 23 0.875476 0.453598
68 -13 8.999999 0.948118 0.453593
85.49991 -13.000001 21 0.885853 0.544407
86.4 -13 8.999999 0.948118 0.549074
68 -12.699999 9.999999 0.165017 0.375287
68 -13.000001 23 0.16346 0.330168
68 -3.500001 22.5 0.212758 0.331904
67.9 -3.5000005 10 0.212758 0.374901
68 -3.500001 22.5 0.586005 0.847923
68 -3.5000005 10 0.586005 0.783071
67.9 -3.5000005 10 0.586524 0.783071
68 -12.7 22.5 0.165017 0.331904
67.9 -12.699999 9.999999 0.165017 0.374901
67.9 -12.699999 9.999999 0.573983 0.808945
68 -12.699999 9.999999 0.573464 0.808945
67.9 -12.7 22.5 0.573983 0.744086
68 -12.7 22.5 0.573464 0.744086
67.9 -3.500001 22.5 0.586524 0.847923
67.9 -3.500001 22.5 0.212758 0.331518
67.9 -12.7 22.5 0.165017 0.331518
67.9 -3.500001 22.5 0.811436 0.791614
67.9 -12.7 22.5 0.811436 0.743873
68 -3.500001 22.5 0.811955 0.791614
68 -12.7 22.5 0.811955 0.743873
68 -3.9999979 23 0.210163 0.330168
68 -11.999999 23 0.16865 0.330168
68 -11.999999 23 0.124955 0.925086
68 -13.000001 23 0.119766 0.925086
85.4831 -11.999999 23 0.124955 0.834371
68 -11.999999 23 0.007783 0.837381
85.4831 -11.999999 23 0.007783 0.928104
68 -11.999999 24.5 0 0.837381
68 -11.999999 24.5 0.16865 0.324962
68 -3.9999979 24.5 0.210163 0.324962
85.4831 -11.999999 23 0.16865 0.397614
85.49991 -13.000001 23 0.16346 0.397679
85.49991 -13.000001 23 0.119766 0.834284
85.4831 -11.999999 24.5 0 0.928104
68 -3.9999979 24.5 0.469559 0.987426
68 -11.999999 24.5 0.428045 0.987426
85.349106 -3.9999979 24.5 0.469559 0.897406
85.4831 -11.999999 24.5 0.428045 0.89671
68 -3.9999979 24.5 0.955388 0.797632
85.349106 -3.9999979 24.5 0.955388 0.88766
68 -3.9999979 23 0.947606 0.797632
85.349106 -3.9999979 23 0.210163 0.397097
85.349106 -3.9999979 23 0.947606 0.88766
68 -3.9999979 23 0.21535 0.897163
85.349106 -3.9999979 23 0.21535 0.807143
85.5001 -13.016698 21 0.163374 0.404621
85.49991 -13.000001 21 0.16346 0.40462
85.49991 -13.000001 23 0.875476 0.544407
85.5001 -13.016698 21 0.582455 0.783071
86.4 -13.001701 35 0.577785 0.710429
86.4 -13.0017 21 0.577785 0.783072
86.4 -13.0017 21 0.163451 0.408093
86.4 -13.000001 21 0.16346 0.408093
86.4 -13.000001 21 0.885853 0.549078
86.4 -17.249998 8.999999 0.141406 0.449741
86.4 -17.25 23 0.141406 0.401152
86.4 -13.001701 35 0.163451 0.359504
86.4 -17.25 35 0.141406 0.359504
86.4 -16.250002 41 0.146595 0.33868
86 -17.25 35 0.582455 0.845329
86 -16.250002 41 0.582452 0.876563
86.4 -17.25 35 0.580379 0.845329
86.4 -16.250002 41 0.580376 0.876563
86.4 -17.25 23 0.580376 0.783071
86.4 -44.500004 48.199997 0 0.313691
86.4 -28.2518 41 0.084315 0.33868
86.4 -28.2518 41 0.596116 0.87647
86.4 -16.250002 41 0.597159 0.938742
86 -16.2568 41 0.595083 0.938741
86 -16.250002 41 0.595083 0.938776
86 -16.2568 41 0.030278 0.900068
86 -16.250002 41 0.030243 0.900071
86 -17.25 35 0.033691 0.878889
86 -17.25 23 0.582452 0.783071
86 -17.257 35 0.033727 0.878886
86 -17.25 23 0.030243 0.837384
85.5169 -28.266602 41 0.591533 0.87647
85.3159 -16.2683 41 0.591533 0.938741
85.3159 -16.2683 41 0.211548 0.803765
86 -16.2568 41 0.207998 0.803765
86 -17.257 35 0.208012 0.772531
86 -17.257 23 0.030279 0.837381
85.3327 -17.2681 35 0.211475 0.772531
86 -17.257 23 0.208033 0.710273
86 -17.25 23 0.23092 0.454964
86.4 -17.25 23 0.23092 0.454964
68 -17.25 23 0.23092 0.454964
68 -17.25 23 0.597159 0.87647
85.3327 -17.2681 23 0.597065 0.786535
86 -17.25 23 0.597159 0.783073
86 -17.257 23 0.597122 0.783073
85.3327 -17.2681 23 0.211496 0.710273
68 -18.250002 23 0.591969 0.87647
85.349106 -18.250002 23 0.591969 0.78645
85.3327 -17.2681 35 0.141312 0.355386
85.3327 -17.2681 23 0.141312 0.397034
85.349106 -18.250002 24.5 0.136217 0.391891
85.349106 -18.250002 23 0.136217 0.397097
85.349106 -18.250002 24.5 0.80469 0.935125
85.349106 -18.250002 23 0.796908 0.935125
68 -18.250002 23 0.796908 0.845097
68 -18.250002 24.5 0.80469 0.845097
68 -18.250002 23 0.136217 0.330168
68 -17.699999 22.5 0.139071 0.331904
68 -26.250002 22.999998 0.094703 0.330168
68 -17.25 23 0.141406 0.330168
68 -18.250002 24.5 0.136217 0.324962
85.4831 -26.250002 24.499998 0.094703 0.392408
68 -18.250002 24.5 0.376212 0.987426
68 -26.250002 24.499998 0.334698 0.987426
85.349106 -18.250002 24.5 0.376212 0.897406
85.4831 -26.250002 24.499998 0.334698 0.89671
68 -26.250002 24.499998 0.094703 0.324962
68 -26.250002 22.999998 0.038916 0.928183
68 -27.250002 22.999998 0.033727 0.928183
85.4831 -26.250002 22.999998 0.038916 0.837468
68 -26.250002 22.999998 0.02335 0.837381
85.4831 -26.250002 22.999998 0.02335 0.928103
68 -26.250002 24.499998 0.015567 0.837381
68 -27.250002 22.999998 0.089514 0.330168
68 -26.900002 22.499998 0.09133 0.331904
85.4831 -26.250002 24.499998 0.015567 0.928104
85.49991 -27.250002 22.999998 0.089514 0.397679
85.5001 -27.2667 35 0.089427 0.356032
85.4831 -26.250002 22.999998 0.094703 0.397614
85.49991 -27.250002 22.999998 0.033727 0.837381
85.5001 -27.266699 20.999998 0.089427 0.404621
85.49991 -27.25 20.999998 0.089514 0.40462
85.49991 -27.250002 22.999998 0.875465 0.686904
68 -27.250002 22.999998 0.875465 0.596095
85.49991 -27.25 20.999998 0.885843 0.686904
85.5001 -27.2667 35 0.808968 0.135047
85.5001 -27.266699 20.999998 0.808968 0.20769
86.4 -27.2517 35 0.804298 0.135048
85.5169 -28.266602 41 0.808905 0.103845
86.4 -28.2518 41 0.804322 0.103846
85.5169 -28.266602 41 0.084239 0.335273
85.3159 -16.2683 41 0.1465 0.334497
86.4 -31.499998 35 0.06746 0.359504
86.4 -27.2517 35 0.089505 0.359504
86.4 -30.5 41 0.072649 0.33868
86.4 -31.499998 22.999998 0.06746 0.401152
86 -31.499998 35 0.580376 0.845329
86 -30.5 41 0.580374 0.876563
86.4 -31.499998 35 0.578301 0.845329
86.4 -30.5 41 0.578298 0.876563
86.4 -31.499998 22.999998 0.578298 0.783071
86.4 -42.5018 41 0.010369 0.33868
86.4 -42.5018 41 0.581412 0.876563
86.4 -30.5 41 0.582455 0.938835
86 -30.506802 41 0.580379 0.938834
86 -30.5 41 0.58038 0.938869
86 -30.506802 41 0.211901 0.866453
86 -30.5 41 0.211866 0.866456
86 -31.499998 35 0.215314 0.845274
86 -31.499998 22.999998 0.580374 0.783071
86 -31.507002 35 0.21535 0.845271
86 -31.499998 22.999998 0.211866 0.803769
85.5169 -42.516598 41 0.576829 0.876563
85.3159 -30.518301 41 0.576829 0.938834
85.3159 -30.518301 41 0.586005 0.876563
86 -30.506802 41 0.582455 0.876563
86 -31.507002 35 0.582469 0.845329
86 -31.507002 22.999998 0.211902 0.803766
85.3327 -31.5181 35 0.585932 0.845329
86 -31.507002 22.999998 0.582489 0.783071
86 -31.499998 22.999998 0.23092 0.454964
86.4 -31.499998 22.999998 0.23092 0.454964
68 -31.499998 22.999998 0.23092 0.454964
68 -31.499998 22.999998 0.591969 0.87647
85.3327 -31.5181 22.999998 0.591875 0.786535
86 -31.499998 22.999998 0.591969 0.783073
86 -31.507002 22.999998 0.591933 0.783073
85.3327 -31.5181 22.999998 0.585952 0.783071
68 -32.5 22.999998 0.58678 0.87647
85.349106 -32.5 22.999998 0.58678 0.78645
85.3327 -31.5181 35 0.067366 0.355386
85.3327 -31.5181 22.999998 0.067366 0.397034
85.349106 -32.5 24.499998 0.062271 0.391891
85.349106 -32.5 22.999998 0.062271 0.397097
85.349106 -32.5 24.499998 0.796908 0.935125
85.349106 -32.5 22.999998 0.789126 0.935125
68 -32.5 22.999998 0.789126 0.845097
85.4831 -40.5 24.499998 0.020757 0.392408
68 -32.5 24.499998 0.334698 0.987426
68 -40.5 24.499998 0.293184 0.987426
85.349106 -32.5 24.499998 0.334698 0.897406
85.4831 -40.5 24.499998 0.293184 0.89671
68 -32.5 24.499998 0.796908 0.845097
85.49991 -41.5 22.999998 0.015568 0.397679
85.5001 -41.5167 35 0.015481 0.356032
85.4831 -40.5 22.999998 0.020757 0.397614
85.4831 -40.5 22.999998 0.015567 0.928104
85.4831 -40.5 24.499998 0.007783 0.928104
68 -40.5 24.499998 0.007783 0.837381
68 -40.5 22.999998 0.015567 0.837381
68 -40.5 22.999998 0.020757 0.330168
68 -40.5 24.499998 0.020757 0.324962
68 -32.5 24.499998 0.062271 0.324962
68 -32.5 22.999998 0.062271 0.330168
68 -40.5 22.999998 0.028539 0.928183
68 -41.5 22.999998 0.02335 0.928183
85.4831 -40.5 22.999998 0.028539 0.837468
68 -40.999996 22.499998 0.018162 0.331904
68 -41.5 22.999998 0.015568 0.330168
85.49991 -41.5 22.999998 0.02335 0.837381
85.5001 -41.5167 20.999998 0.015481 0.404621
85.49991 -41.5 20.999998 0.015568 0.40462
85.49991 -41.5 20.999998 0.885843 0.787675
85.49991 -41.5 22.999998 0.875465 0.787675
68 -41.5 22.999998 0.875465 0.696865
68 -41.5 8.999998 0.948108 0.696861
68 -41.5 8.999998 0.015568 0.378758
68 -40.999996 9.999998 0.018162 0.375287
68 -31.8 22.499998 0.065903 0.331904
67.9 -40.999996 22.499998 0.811955 0.743873
68 -40.999996 22.499998 0.812474 0.743873
68 -31.8 22.499998 0.812474 0.791614
68 -40.999996 9.999998 0.809879 0.808733
68 -40.999996 22.499998 0.809879 0.743873
67.9 -40.999996 22.499998 0.810398 0.743873
68 -31.499998 22.999998 0.06746 0.330168
68 -31.799997 9.999999 0.065903 0.375287
67.9 -31.8 22.499998 0.810917 0.808725
68 -31.8 22.499998 0.810398 0.808725
67.9 -31.799997 9.999999 0.810917 0.743873
68 -31.799997 9.999999 0.810398 0.743873
67.9 -31.8 22.499998 0.811955 0.791614
67.9 -40.999996 9.999998 0.810398 0.808733
67.9 -40.999996 22.499998 0.018162 0.331518
67.9 -31.8 22.499998 0.065903 0.331518
67.9 -40.999996 9.999998 0.018162 0.374901
67.9 -31.799997 9.999999 0.065903 0.374901
68 -31.499996 8.999999 0.06746 0.378758
86.4 -41.5 8.999998 0.015568 0.449741
86.4 -31.499996 8.999999 0.06746 0.449741
68 -31.499998 22.999998 0.973024 0.005223
86.4 -31.499998 22.999998 0.973024 0.100704
68 -31.499996 8.999999 0.90039 0.005224
86.4 -31.499996 8.999999 0.90039 0.100705
86.4 -27.25 8.999999 0.089514 0.449741
86.4 -27.251698 20.999998 0.089505 0.408093
86.4 -36.749996 5.9999995 0.040216 0.460153
86.4 -27.25 20.999998 0.089514 0.408093
86.4 -27.251698 20.999998 0.804298 0.20769
86.4 -27.25 8.999999 0.948108 0.691571
86.4 -27.25 20.999998 0.885843 0.691575
68 -27.25 8.999999 0.948108 0.59609
68 -26.9 9.999999 0.09133 0.375287
68 -27.25 8.999999 0.089514 0.378758
68 -17.249998 8.999999 0.141406 0.378758
68 -17.699997 9.999999 0.139071 0.375287
67.9 -26.9 9.999999 0.09133 0.374901
67.9 -17.699997 9.999999 0.139071 0.374901
67.9 -26.9 9.999999 0.573983 0.744086
68 -26.9 9.999999 0.573464 0.744086
67.9 -26.900002 22.499998 0.573983 0.679227
68 -26.900002 22.499998 0.573464 0.679227
67.9 -26.900002 22.499998 0.810917 0.743873
68 -26.900002 22.499998 0.811436 0.743873
68 -17.699999 22.5 0.811436 0.791614
67.9 -17.699999 22.5 0.810917 0.791614
67.9 -26.900002 22.499998 0.09133 0.331518
67.9 -17.699999 22.5 0.139071 0.331518
67.9 -17.699999 22.5 0.578298 0.847923
68 -17.699999 22.5 0.577779 0.847923
67.9 -17.699997 9.999999 0.578298 0.783071
68 -17.699997 9.999999 0.577779 0.783071
68 -17.25 23 0.975457 0.20769
86.4 -17.25 23 0.975457 0.303172
68 -17.249998 8.999999 0.902824 0.207692
86.4 -17.249998 8.999999 0.902824 0.303173
86.4 -36.749996 5.9999995 0.613594 0
86.4 -7.7499976 6.0000005 0.764081 0
58.000008 -7.7499976 6.0000005 0.764081 0.14736
69.9 -7.749997 -3.3876313e-07 0.776175 0.682127
86.4 -7.7499976 6.0000005 0.776175 0.59609
69.9 -2 -8.742278e-08 0.806013 0.682127
86.4 -2.6226837e-07 6.000001 0.816391 0.59609
58.000008 -7.7499976 6.0000005 0.745042 0.679227
86.4 -7.7499976 6.0000005 0.745042 0.8266
69.9 -7.749997 -3.3876313e-07 0.713914 0.740979
58.000008 -7.749997 -3.3876313e-07 0.776175 0.743873
65.5 -2 -8.742278e-08 0.806013 0.704958
58.000008 -7.749997 -3.3876313e-07 0.713913 0.679227
69.9 -2.0000002 2.999999 0.669289 0.917907
69.9 -2 -8.742278e-08 0.669289 0.902339
69.9 0 0 0.679668 0.902339
69.9 -2.0000002 2.999999 0.682785 0.920585
65.5 -2.0000002 2.999999 0.682785 0.897753
69.9 -2 -8.742278e-08 0.698351 0.920584
65.5 -2 -8.742278e-08 0.698351 0.897752
69.9 0 0 0.816391 0.682127
65.5 -2.0000002 2.999999 0.885888 0.443181
65.5 -1.3113413e-07 2.999999 0.896266 0.443181
65.5 -2 -8.742278e-08 0.885888 0.453593
65.5 0 0 0.896266 0.453593
61.500004 -2 -8.742278e-08 0.806013 0.725713
65.5 0 0 0.816391 0.704958
58.000008 -2 -8.742278e-08 0.806013 0.743873
58.000008 -7.7499976 6.0000005 0.867053 0.558472
58.000008 -7.749997 -3.3876313e-07 0.867053 0.589608
58.000008 -2 -8.742278e-08 0.837215 0.589608
61.500004 0 0 0.816391 0.725713
61.500004 -2.0000002 6.000001 0.396843 0.927846
61.500004 -2 -8.742278e-08 0.396843 0.89671
61.500004 0 0 0.407222 0.89671
61.500004 -2.0000002 6.000001 0.376212 0.89671
58.000008 -2.0000002 6.000001 0.394374 0.896712
61.500004 -2 -8.742278e-08 0.376212 0.927843
58.000008 -2 -8.742278e-08 0.394374 0.927844
61.500004 0 0 0.573378 0.319133
65.5 0 0 0.573378 0.33989
65.5 -1.3113413e-07 2.999999 0.557811 0.339891
61.500004 -2.6226837e-07 6.000001 0.542245 0.319135
61.500004 -2.6226837e-07 6.000001 0.407222 0.927846
61.500004 -2.0000002 6.000001 0.793919 0.1292
61.500004 -2.6226837e-07 6.000001 0.804298 0.1292
58.000008 -2.0000002 6.000001 0.793919 0.14736
25.400002 -5.3999987 6.000001 0.776276 0.316513
25.400002 -2.6226837e-07 6.000001 0.804298 0.316513
58.000008 -2.0000002 6.000001 0.837215 0.558472
23.900002 -19.079998 6 0.705288 0.324296
23.900002 -5.3999987 6.000001 0.776276 0.324296
23.900002 -5.399998 -2.3604142e-07 0.922819 0.413144
25.400002 -5.3999987 6.000001 0.937856 0.413144
25.400002 -2.6226837e-07 6.000001 0.937856 0.441166
25.400002 -5.3999987 6.000001 0.220542 0.929505
23.900002 -5.399998 -2.3604142e-07 0.228325 0.898376
23.900002 -5.3999987 6.000001 0.228326 0.929505
23.900002 -5.399998 -2.3604142e-07 0.407221 0.967699
23.900002 -19.079998 -8.340132e-07 0.407221 0.89671
23.900002 -5.3999987 6.000001 0.428045 0.967699
23.900002 -19.079998 6 0.428045 0.89671
5.000003 -14.449999 -6.316295e-07 0.062942 0.80834
23.900002 -19.079998 -8.340132e-07 0.038916 0.710273
23.900002 -5.399998 -2.3604142e-07 0.109904 0.710273
9.08 -2.099998 -9.179383e-08 0.127029 0.78717
23.900002 0 0 0.137926 0.710273
23.900002 0 0 0.922819 0.441166
5.000003 -19.079998 -8.340132e-07 0.038916 0.80834
23.900002 -19.079998 -8.340132e-07 0.871695 0.305767
5.000003 -19.079998 -8.340132e-07 0.871695 0.207691
23.900002 -19.079998 6 0.902824 0.305767
5.000003 -14.449999 -6.316295e-07 0.896872 0.410191
0 -14.449999 -6.316295e-07 0.922819 0.410196
5.000003 -15.949998 6.0000005 0.896872 0.44116
4.080001 -2.099998 -9.179383e-08 0.127029 0.813114
0 -14.449999 -6.316295e-07 0.062942 0.834284
5.000003 -19.079998 -8.340132e-07 0.896872 0.441326
5.000003 -14.449999 -6.316295e-07 0.872846 0.441326
5.000003 -15.949998 6.0000005 0.88063 0.410191
5.000003 -19.079998 6 0.896872 0.410191
5.000003 -19.079998 6 0.902824 0.20769
0 -15.949998 6.0000005 0.922819 0.441166
5.000003 -19.079998 6 0.705288 0.422363
5.000003 -15.949998 6.0000005 0.72153 0.422363
0 -15.949998 6.0000005 0.72153 0.448307
0 -34.35 5.9999995 0.626048 0.448307
5.000003 -31.449995 5.9999995 0.641097 0.422363
0 -17.249998 8.999999 0.141406 0.506856
0 -15.949998 6.0000005 0.148152 0.491288
0 -13 8.999999 0.16346 0.506856
0 -27.25 8.999999 0.089514 0.506856
0 -34.35 5.9999995 0.05267 0.491288
0 -14.449999 -6.316295e-07 0.155936 0.460153
0 -13.0151 21 0.163382 0.569126
0 -17.25 23 0.141406 0.579505
18.4999 -17.249998 8.999999 0.776175 0.993973
18.4999 -27.25 8.999999 0.724283 0.993973
0 -17.249998 8.999999 0.776175 0.922604
0 -27.25 8.999999 0.724283 0.922604
18.4999 -17.249998 8.999999 0.137926 0.930285
0 -17.249998 8.999999 0.137926 0.834285
18.4999 -17.25 23 0.21056 0.930284
0 -17.25 23 0.21056 0.834284
18.4999 -27.25 8.999999 0.810965 0.897512
18.4999 -17.249998 8.999999 0.862857 0.897512
18.4999 -17.699997 9.999999 0.860522 0.902701
18.4999 -17.25 23 0.862857 0.970161
0 -27.25 8.999999 0.776175 0.826601
18.4999 -27.25 8.999999 0.776175 0.9226
0.9 -27.25 20.999998 0.71391 0.831275
18.4999 -27.250002 22.999998 0.703532 0.922604
18.4999 -27.250002 22.999998 0.810965 0.970161
18.4999 -26.9 9.999999 0.812781 0.902701
18.4999 -17.699999 22.5 0.860522 0.967566
18.4999 -26.900002 22.499998 0.812781 0.967566
0.9 -27.250002 22.999998 0.703532 0.831275
18.4999 -27.250002 22.999998 0.132737 0.834284
18.4999 -26.250002 22.999998 0.137926 0.834284
0.9 -27.250002 22.999998 0.132737 0.925605
18.4999 -26.250002 22.999998 0.816154 0.970161
18.4999 -18.250002 23 0.857668 0.970161
0.883304 -26.250002 22.999998 0.137926 0.925692
18.4999 -26.250002 24.499998 0.816154 0.977945
18.4999 -26.250002 24.499998 0.690568 0.897752
0.883304 -26.250002 24.499998 0.690568 0.806336
18.4999 -26.250002 22.999998 0.698351 0.897751
0.883304 -26.250002 22.999998 0.698351 0.806336
0.9 -27.250002 22.999998 0.236109 0.896711
0.883304 -26.250002 24.499998 0.241298 0.904494
0.9 -27.250002 35 0.236109 0.958981
0.9 -27.250002 35 0.23092 0.454964
0.9 -27.25 20.999998 0.23092 0.454964
0.9 -27.250002 22.999998 0.23092 0.454964
0.883304 -26.250002 22.999998 0.241298 0.896711
0.732601 -17.2514 35 0.287995 0.958981
0.749301 -18.250002 24.5 0.282813 0.904494
18.4999 -26.250002 24.499998 0.944329 0.312453
18.4999 -18.250002 24.5 0.985842 0.312453
0.883304 -26.250002 24.499998 0.944329 0.403861
0.749301 -18.250002 24.5 0.985842 0.404556
18.4999 -18.250002 24.5 0.857668 0.977945
0.749301 -18.250002 23 0.225731 0.802376
18.4999 -18.250002 23 0.225731 0.710273
18.4999 -17.25 23 0.23092 0.710273
18.4999 -18.250002 23 0.220542 0.898376
0.749301 -18.250002 23 0.220542 0.806264
18.4999 -18.250002 24.5 0.228324 0.898376
0.749301 -18.250002 24.5 0.228324 0.806264
0.732601 -17.2514 23 0.287995 0.89671
0.749301 -18.250002 23 0.282813 0.89671
0.732601 -17.2514 23 0.230913 0.802463
0 -17.25 23 0.23092 0.806264
0.732601 -17.2514 35 0.573983 0.741485
0.732601 -17.2514 23 0.573983 0.679228
0 -17.2637 35 0.577785 0.741484
0 -17.2637 23 0.577785 0.679227
0 -17.2637 23 0.230849 0.806264
0 -13.0151005 35 0.163382 0.641775
0 -17.2637 35 0.141335 0.641775
0 -17.2637 23 0.141335 0.579505
0 -16.263502 41 0.577781 0.772719
0 -16.263502 41 0.146525 0.672911
0 -14.0152 41 0.158192 0.672911
0.9 -13.000002 35 0.58727 0.710429
0.916701 -13.9999 41 0.587212 0.679227
0 -13.0151005 35 0.59194 0.710429
0 -14.0152 41 0.591969 0.679227
0 -13.0151 21 0.591928 0.783071
0 -13.000001 21 0.16346 0.569126
0.9 -13.000001 21 0.587258 0.783071
0 -13.0151 21 0.573464 0.682699
0 -13.000001 21 0.573386 0.682699
0.9 -13.000001 21 0.573386 0.679227
0 -2.9999995 9 0.215352 0.506856
0 -13 8.999999 0.111558 0.834284
18.4999 -13 8.999999 0.111558 0.930283
0.9 -13.000001 21 0.049293 0.838958
0 -13.000001 21 0.049293 0.834288
18.4999 -13 8.999999 0.67239 0.993973
0 -13 8.999999 0.67239 0.922604
0 -2.9999995 9 0.724283 0.922604
0.9 -13.000002 35 0.23092 0.532787
0.9 -13.000001 21 0.23092 0.460153
0.9 -13.000001 23 0.23092 0.470529
18.4999 -13.000001 23 0.038916 0.930287
0.9 -13.000001 23 0.038916 0.838959
18.4999 -2.9999995 9 0.724283 0.993973
18.4999 -13.000001 23 0.948108 0.668739
18.4999 -13 8.999999 0.948108 0.59609
18.4999 -12.699999 9.999999 0.949665 0.601279
18.4999 -2.9999995 9 1 0.59609
18.4999 -3.5000005 10 0.997405 0.601279
18.4999 -13.000001 23 0.597171 0.806336
18.4999 -11.999999 23 0.60236 0.806336
0.9 -13.000001 23 0.597171 0.897657
18.4999 -12.7 22.5 0.949665 0.666145
18.4999 -11.999999 23 0.953297 0.668739
18.4999 -3 23 1 0.668739
18.4999 -3.500001 22.5 0.997405 0.666145
18.4999 -2.9999995 9 0.874972 0.893633
0 -2.9999995 9 0.874972 0.797633
18.4999 -3 23 0.947606 0.893632
0 -3 23 0.947606 0.797632
0.732601 -3.0014 23 0.225724 0.802463
0.749301 -3.9999979 23 0.220542 0.802376
18.4999 -3 23 0.225731 0.710273
18.4999 -3.9999979 23 0.220542 0.710273
0 -3 23 0.225731 0.806264
18.4999 -3.9999979 23 0.994811 0.668739
18.4999 -3.9999979 23 0.675002 0.898448
0.749301 -3.9999979 23 0.675002 0.806336
18.4999 -3.9999979 24.5 0.682785 0.898448
18.4999 -11.999999 24.5 0.953297 0.676523
18.4999 -3.9999979 24.5 0.994811 0.676523
0.749301 -3.9999979 24.5 0.562966 0.904494
0.749301 -3.9999979 23 0.562966 0.89671
0.732601 -3.0014 23 0.568148 0.89671
0.749301 -3.9999979 24.5 0.682785 0.806336
18.4999 -11.999999 24.5 0.937243 0.893633
18.4999 -3.9999979 24.5 0.978757 0.893633
0.883304 -11.999999 24.5 0.937243 0.985041
0.749301 -3.9999979 24.5 0.978757 0.985736
18.4999 -11.999999 24.5 0.682785 0.897752
0.883304 -11.999999 24.5 0.682785 0.806336
18.4999 -11.999999 23 0.690568 0.897751
0.9 -13.000001 23 0.516262 0.896711
0.883304 -11.999999 24.5 0.521451 0.904494
0.9 -13.000002 35 0.516262 0.958981
0.732601 -3.0014005 35 0.568148 0.958981
0.883304 -11.999999 23 0.521451 0.896711
0.883304 -11.999999 23 0.690568 0.806336
0.715803 -2.0015 41 0.211631 0.803767
0.732601 -3.0014005 35 0.211548 0.772532
0 -2.013499 41 0.215346 0.803765
0 -3.0137014 35 0.21535 0.77253
0.732601 -3.0014 23 0.211548 0.710274
0.715803 -2.0015 41 0.573337 0.990116
0.916701 -13.9999 41 0.511073 0.990116
0.715803 -2.0015 41 0.215347 0.928726
0 -2.013499 41 0.211632 0.928726
0.916701 -13.9999 41 0.21535 0.866455
0 -2.013499 41 0.220471 0.672911
0 -2.106889e-06 48.2 0.23092 0.710273
0 -3 23 0.215352 0.579505
0 -3.0137014 35 0.215281 0.641775
0 -14.0152 41 0.210593 0.866455
0 -3.013701 23 0.215281 0.579505
0 -3.013701 23 0.21535 0.710273
0 -3.013701 23 0.22566 0.806264
0 0 0 0.23092 0.460153
4.080001 0 0 0.137926 0.813114
0 0 0 0.137926 0.834284
0 -2.106889e-06 48.2 0.32328 1.6e-05
0 0 0 0.573378 -0
4.080001 -1.3113413e-07 2.999999 0.557811 0.021173
4.080001 0 0 0.573378 0.021172
4.080001 0 0 0.875476 0.453593
4.080001 -2.099998 -9.179383e-08 0.875476 0.442696
4.080001 -1.3113413e-07 2.999999 0.885888 0.453593
4.080001 -2.0999982 2.999999 0.885888 0.442696
4.080001 -2.099998 -9.179383e-08 0.94956 0.558479
9.08 -2.099998 -9.179383e-08 0.94956 0.584424
4.080001 -2.0999982 2.999999 0.933994 0.558479
9.08 -1.3113413e-07 2.999999 0.557811 0.047119
4.080001 -1.3113413e-07 2.999999 0.948753 0.441166
4.080001 -2.0999982 2.999999 0.937856 0.441166
9.08 -1.3113413e-07 2.999999 0.948753 0.415222
9.08 -2.0999982 2.999999 0.937856 0.415222
9.08 -2.0999982 2.999999 0.933994 0.584425
9.08 0 0 0.137926 0.78717
9.08 -2.099998 -9.179383e-08 0.701835 0.806336
9.08 0 0 0.712732 0.806336
9.08 -2.0999982 2.999999 0.701835 0.821903
9.08 -1.3113413e-07 2.999999 0.712732 0.821903
25.400002 -2.6226837e-07 6.000001 0.542245 0.131807
9.08 0 0 0.573378 0.047118
23.900002 0 0 0.573378 0.124021
21.100002 -2.1637138e-06 49.5 0.316535 0.109507
13.950002 -2.1637138e-06 49.5 0.316535 0.072405
69.9 -1.3113413e-07 2.999999 0.557811 0.362723
66.3 -2.1637138e-06 49.5 0.316534 0.344057
86.4 -2.6226837e-07 6.000001 0.542245 0.448345
73.45 -2.1637138e-06 49.5 0.316534 0.38116
69.9 -1.3113413e-07 2.999999 0.124955 0.925095
65.5 -1.3113413e-07 2.999999 0.124955 0.947925
65.5 -2.0000002 2.999999 0.114576 0.947925
69.9 0 0 0.573378 0.362722
69.9 -2.0000002 2.999999 0.114576 0.925095
69.9 -1.3113413e-07 2.999999 0.679668 0.917907
86.4 -2.106889e-06 48.2 0.32328 0.448359
80.00001 -7.749999 48.842503 0.190704 0.286771
79.5714 -6.0091 48.885498 0.199738 0.284969
80.00001 -22.000002 48.842503 0.116757 0.286771
78.3837 -4.6661997 49.0047 0.206706 0.279973
73.45 -2.1637138e-06 49.5 0.23092 0.259221
79.497604 -5.8750005 30 0.850103 0.896469
78.3837 -4.6661997 49.0047 0.842969 0.797908
79.5714 -6.0091 48.885498 0.849953 0.798466
80.00001 -7.7499986 30 0.859837 0.896385
80.00001 -7.749999 48.842503 0.858992 0.79861
78.125 -4.5023985 30 0.842969 0.896532
78.125 -4.5023985 30 0.816391 0.596846
76.708206 -4.0281024 49.1729 0.826025 0.696173
78.3837 -4.6661997 49.0047 0.817313 0.695432
76.708206 -4.0281024 49.1729 0.210017 0.272925
74.375 -4.5023985 30 0.207556 0.330467
78.125 -4.5023985 30 0.207556 0.344934
79.497604 -5.8750005 30 0.200433 0.350229
73.0024 -5.8750005 30 0.200433 0.325172
80.00001 -7.7499986 30 0.190704 0.352167
76.25 -3.9999983 30 0.826118 0.596676
76.25 -3.9999983 30 0.210163 0.3377
74.928 -4.240701 49.3516 0.835282 0.696865
74.928 -4.240701 49.3516 0.208914 0.265438
66.3 -2.1637138e-06 49.5 0.23092 0.231638
72.6098 -6.849201 49.5 0.195378 0.255979
73.45 -5.2555003 49.5 0.203648 0.259221
74.375 -4.5023985 30 0.835846 0.596399
73.45 -5.2555003 49.5 0.842969 0.697351
73.0024 -5.8750005 30 0.842969 0.59609
72.50001 -7.7499986 30 0.190704 0.323234
72.6098 -8.650801 49.5 0.186029 0.255979
73.0024 -9.625 30 0.180974 0.325172
79.497604 -9.625 30 0.180974 0.350229
73.45 -10.244502 49.5 0.177759 0.259221
72.6098 -21.099201 49.5 0.121432 0.255979
73.0024 -9.625 30 0.809879 0.845097
74.375 -10.997598 30 0.80279 0.845002
73.45 -10.244502 49.5 0.807565 0.743873
78.125 -10.997598 30 0.173851 0.344934
74.375 -10.997598 30 0.173851 0.330467
79.497604 -9.625 30 0.869562 0.896301
79.5714 -9.490902 48.885498 0.86802 0.79831
78.3837 -10.833801 49.0047 0.874972 0.797632
78.3837 -10.833801 49.0047 0.781978 0.746402
78.125 -10.997598 30 0.783331 0.845002
79.497604 -9.625 30 0.776175 0.845097
78.3837 -10.833801 49.0047 0.174701 0.279973
79.5714 -9.490902 48.885498 0.18167 0.284969
79.5714 -20.2591 48.885498 0.125791 0.284969
76.708206 -11.471899 49.1729 0.790688 0.745485
78.3837 -18.916199 49.0047 0.13276 0.279973
76.708206 -11.471899 49.1729 0.17139 0.272925
76.25 -11.499998 30 0.793072 0.844967
76.25 -11.499998 30 0.171244 0.3377
74.928 -11.2593 49.3516 0.79992 0.744573
76.708206 -18.278101 49.1729 0.136071 0.272925
74.928 -18.4907 49.3516 0.134968 0.265438
74.928 -11.2593 49.3516 0.172493 0.265438
79.497604 -20.125 30 0.818099 0.897449
78.3837 -18.916199 49.0047 0.810965 0.798889
79.5714 -20.2591 48.885498 0.817949 0.799446
78.125 -18.752401 30 0.810965 0.897512
78.125 -18.752401 30 0.816391 0.698107
76.708206 -18.278101 49.1729 0.826025 0.797433
78.3837 -18.916199 49.0047 0.817313 0.796693
76.25 -18.250002 30 0.826118 0.697937
74.928 -18.4907 49.3516 0.835282 0.798126
74.375 -18.752401 30 0.835846 0.69766
73.45 -19.505499 49.5 0.842969 0.798612
73.45 -19.505499 49.5 0.129702 0.259221
74.375 -18.752401 30 0.13361 0.330467
76.25 -18.250002 30 0.136217 0.3377
78.125 -18.752401 30 0.13361 0.344934
79.497604 -20.125 30 0.126487 0.350229
80.00001 -22.000002 29.999998 0.827833 0.897365
73.0024 -20.125 30 0.126487 0.325172
80.00001 -22.000002 29.999998 0.116757 0.352167
73.0024 -20.125 30 0.842969 0.697351
72.50001 -22.000002 29.999998 0.116757 0.323234
72.6098 -22.900799 49.5 0.112083 0.255979
73.0024 -23.875 29.999998 0.107028 0.325172
79.497604 -23.875 29.999998 0.107028 0.350229
73.45 -24.494501 49.5 0.103813 0.259221
73.0024 -23.875 29.999998 0.837994 0.308941
74.375 -25.2476 29.999998 0.830908 0.308683
73.45 -24.494501 49.5 0.837994 0.20769
78.125 -25.2476 29.999998 0.099905 0.344934
74.375 -25.2476 29.999998 0.099905 0.330467
79.497604 -23.875 29.999998 0.837558 0.897281
79.5714 -23.7409 48.885498 0.836016 0.79929
78.3837 -25.083801 49.0047 0.842969 0.798612
78.3837 -25.083801 49.0047 0.812355 0.209634
78.125 -25.2476 29.999998 0.811454 0.308238
79.497604 -23.875 29.999998 0.804298 0.30817
76.25 -25.75 29.999998 0.821194 0.308426
76.708206 -25.7219 49.1729 0.821083 0.208916
76.25 -25.75 29.999998 0.097298 0.3377
74.928 -25.5093 49.3516 0.830334 0.208215
78.3837 -33.166203 49.0047 0.058814 0.279973
76.708206 -25.7219 49.1729 0.097444 0.272925
78.3837 -25.083801 49.0047 0.100755 0.279973
76.708206 -32.528103 49.1729 0.062125 0.272925
74.928 -32.7407 49.3516 0.061022 0.265438
74.928 -25.5093 49.3516 0.098547 0.265438
79.5714 -34.509106 48.885498 0.051845 0.284969
79.5714 -23.7409 48.885498 0.107723 0.284969
79.497604 -34.374996 29.999998 0.869268 0.204924
78.3837 -33.166203 49.0047 0.862134 0.106364
79.5714 -34.509106 48.885498 0.869118 0.106921
78.125 -33.0024 29.999998 0.862134 0.204987
78.125 -33.0024 29.999998 0.835556 0.106843
76.708206 -32.528103 49.1729 0.845189 0.20617
78.3837 -33.166203 49.0047 0.836478 0.205429
76.25 -32.5 29.999998 0.845282 0.106673
74.928 -32.7407 49.3516 0.854446 0.206862
74.375 -33.0024 29.999998 0.85501 0.106396
73.45 -33.7555 49.5 0.862133 0.207348
73.45 -33.7555 49.5 0.055756 0.259221
73.0024 -34.374996 29.999998 0.052541 0.325172
72.6098 -35.3492 49.5 0.047486 0.255979
73.0024 -34.374996 29.999998 0.862133 0.106087
74.375 -33.0024 29.999998 0.059664 0.330467
78.125 -33.0024 29.999998 0.059664 0.344934
79.497604 -34.374996 29.999998 0.052541 0.350229
76.25 -32.5 29.999998 0.062271 0.3377
72.50001 -36.25 29.999998 0.042811 0.323234
80.00001 -36.25 29.999998 0.042811 0.352167
72.6098 -37.150803 49.5 0.038137 0.255979
66.3 -44.500004 49.499996 0 0.231638
66.3 -2.8150134e-06 64.4 0.23092 0.179925
55.5975 -2.8849515e-06 66 0.23092 0.288526
66.3 -2.8150134e-06 64.4 0.239222 0.344062
55.5975 -11.000003 66 0.173839 0.133084
66.3 -44.500004 64.4 0 0.179925
55.5975 -8.000001 66 0.189406 0.133084
55.5975 -2.8849515e-06 66 0.23092 0.133084
21.100002 -2.8849515e-06 66 0.23092 0
31.102602 -8.000001 66 0.189406 0.038588
21.100002 -2.8849515e-06 66 0.23092 0.109513
52.5463 -8.000001 69.9721 0.189406 0.107527
55.5975 -8.000001 66 0.038916 0.837381
52.5463 -8.000001 69.9721 0.018306 0.821549
34.1537 -8.000001 69.9721 0.018306 0.726107
31.102602 -8.000001 66 0.038916 0.710273
31.102602 -11.000003 66 0.173839 0.038588
31.102602 -11.000003 66 0.835457 0.444381
31.102602 -8.000001 66 0.81989 0.444411
34.1537 -8.000001 69.9721 0.819877 0.423797
21.100002 -44.500004 66 0 0
21.100002 -2.1637138e-06 49.5 0.776175 0.679227
21.100002 -2.8849515e-06 66 0.690553 0.679227
21.100002 -44.500004 66 0.690553 0.448307
31.102602 -33.500004 66 0.057081 0.038588
31.102602 -36.500004 66 0.041514 0.038588
55.5975 -44.500004 66 0 0.133084
21.100002 -44.500004 49.499996 0.487733 0.557851
21.100002 -44.500004 66 0.573337 0.55785
55.5975 -44.500004 66 0.573337 0.736865
21.100002 -44.500004 49.499996 0.776175 0.448307
55.5975 -36.500004 66 0.041514 0.133084
55.5975 -36.500004 66 0.636091 0.806336
31.102602 -36.500004 66 0.636091 0.679227
34.1537 -36.500004 69.9721 0.656699 0.695059
34.1537 -36.500004 69.9721 0.819865 0.423767
31.102602 -36.500004 66 0.819878 0.444381
34.1537 -33.500004 69.9721 0.804298 0.423797
31.102602 -33.500004 66 0.80431 0.444411
66.3 -44.500004 49.499996 0.487733 0.792404
66.3 -44.500004 64.4 0.565036 0.792403
55.5975 -33.500004 66 0.057081 0.133084
31.102602 -33.500004 66 0.636091 0.679227
55.5975 -33.500004 66 0.636091 0.806335
52.5463 -33.500004 69.9721 0.615481 0.790503
52.5463 -33.500004 69.9721 0.057081 0.107527
52.5463 -11.000003 69.9721 0.69561 0.790502
55.5975 -11.000003 66 0.675002 0.806336
31.102602 -11.000003 66 0.675002 0.679227
52.5463 -11.000003 69.9721 0.173839 0.107527
34.1537 -11.000003 69.9721 0.69561 0.695059
34.1537 -11.000003 69.9721 0.835445 0.423767
38.425102 -11.000003 72.58781 0.709181 0.717224
48.274902 -11.000003 72.58781 0.709181 0.768337
48.274902 -8.000001 72.58781 0.189406 0.081971
48.274902 -11.000003 72.58781 0.173839 0.081971
48.274902 -8.000001 72.58781 0.004733 0.799385
38.425102 -8.000001 72.58781 0.81989 0.41022
38.425102 -8.000001 72.58781 0.004733 0.748273
38.425102 -11.000003 72.58781 0.835457 0.410191
43.350002 -11.000003 73.5 0.713914 0.74278
43.350002 -11.000003 73.5 0.173839 0.059806
38.425102 -11.000003 72.58781 0.173839 0.043972
38.425102 -8.000001 72.58781 0.189406 0.043972
43.350002 -8.000001 73.5 0.189406 0.059806
43.350002 -8.000001 73.5 0 0.773829
52.5463 -36.500004 69.9721 0.656699 0.790502
52.5463 -36.500004 69.9721 0.041514 0.107527
48.274902 -36.500004 72.58781 0.67027 0.768337
48.274902 -33.500004 72.58781 0.057081 0.081971
48.274902 -36.500004 72.58781 0.041514 0.081971
38.425102 -36.500004 72.58781 0.67027 0.717224
38.425102 -36.500004 72.58781 0.819878 0.410191
38.425102 -33.500004 72.58781 0.80431 0.41022
43.350002 -36.500004 73.5 0.675002 0.74278
43.350002 -33.500004 73.5 0.057081 0.059806
43.350002 -36.500004 73.5 0.041514 0.059806
48.274902 -33.500004 72.58781 0.601909 0.768339
38.425102 -33.500004 72.58781 0.601909 0.717226
43.350002 -33.500004 73.5 0.597176 0.742783
34.1537 -33.500004 69.9721 0.615481 0.695061
38.425102 -33.500004 72.58781 0.057081 0.043972
38.425102 -36.500004 72.58781 0.041514 0.043972
73.45 -44.500004 49.499996 0 0.259221
61.500004 -44.5 5.999999 0.262049 0.767499
73.45 -44.500004 49.499996 0.487733 0.829507
73.0024 -38.125 29.999998 0.033081 0.325172
73.45 -38.744503 49.5 0.029867 0.259221
73.0024 -38.125 29.999998 0.837994 0.410191
74.375 -39.4976 29.999998 0.830908 0.409933
73.45 -38.744503 49.5 0.837994 0.308941
79.497604 -38.125 29.999998 0.033081 0.350229
78.125 -39.4976 29.999998 0.025959 0.344934
74.375 -39.4976 29.999998 0.025959 0.330467
74.928 -39.759304 49.3516 0.830335 0.309465
74.928 -39.759304 49.3516 0.024601 0.265438
76.25 -40 29.999998 0.821194 0.409676
76.25 -40 29.999998 0.023351 0.3377
78.125 -39.4976 29.999998 0.811454 0.409489
76.708206 -39.971905 49.1729 0.821084 0.310166
78.3837 -39.3338 49.0047 0.812355 0.310884
79.497604 -38.125 29.999998 0.804298 0.40942
79.497604 -38.125 29.999998 0.888727 0.204756
79.5714 -37.990902 48.885498 0.887185 0.106765
78.3837 -39.3338 49.0047 0.894137 0.106087
80.00001 -36.25 29.999998 0.879002 0.20484
78.3837 -39.3338 49.0047 0.026809 0.279973
79.5714 -37.990902 48.885498 0.033777 0.284969
76.708206 -39.971905 49.1729 0.023497 0.272925
86.4 -44.5 5.999999 0.262049 0.89671
86.4 -44.500004 48.199997 0.480988 0.896707
86.4 -44.5 5.999999 0 0.460153
80.00001 -36.250004 48.842503 0.042811 0.286771
80.00001 -36.250004 48.842503 0.878157 0.107066
80.00001 -22.000002 48.842503 0.826988 0.799591
86.4 -41.5017 35 0.015559 0.359504
85.5169 -42.516598 41 0.808905 0
85.5001 -41.5167 35 0.808968 0.031202
86.4 -42.5018 41 0.804322 1e-06
86.4 -41.5017 35 0.804298 0.031203
86.4 -41.5017 20.999998 0.015559 0.408093
85.5001 -41.5167 20.999998 0.808968 0.103844
86.4 -41.5017 20.999998 0.804298 0.103845
85.5169 -42.516598 41 0.010292 0.335273
85.3159 -30.518301 41 0.072554 0.334497
86.4 -41.5 20.999998 0.015568 0.408093
86.4 -44.5 5.999999 0.776175 0.448307
86.4 -36.749996 5.9999995 0.816391 0.448307
69.9 -44.5 -1.9451568e-06 0.776175 0.534344
69.9 -44.5 -1.9451568e-06 0.23092 0.811089
86.4 -41.5 8.999998 0.948108 0.792341
86.4 -41.5 20.999998 0.885843 0.792345
25.400002 -44.5 5.999999 0.573378 0.316513
61.500004 -44.5 5.999999 0.573378 0.1292
58.000008 -42.499996 5.999999 0.583756 0.14736
61.500004 -42.499996 5.999999 0.583756 0.1292
61.500004 -42.499996 5.999999 0.874972 0.927667
61.500004 -44.5 5.999999 0.864594 0.927667
61.500004 -42.499996 -1.8577339e-06 0.874972 0.896532
61.500004 -44.5 -1.9451568e-06 0.864594 0.896532
61.500004 -44.5 -1.9451568e-06 0.23092 0.7675
25.400002 -44.5 5.999999 0.262049 0.580168
58.000008 -42.499996 5.999999 0.933994 0.589601
61.500004 -42.499996 5.999999 0.915831 0.589601
58.000008 -42.499996 -1.8577339e-06 0.933994 0.558473
61.500004 -42.499996 -1.8577339e-06 0.915831 0.558472
61.500004 -42.499996 -1.8577339e-06 0.786553 0.57793
69.9 -36.749996 -1.6063933e-06 0.816391 0.534344
61.500004 -44.5 -1.9451568e-06 0.776175 0.57793
58.000008 -36.749996 -1.6063933e-06 0.816391 0.59609
58.000008 -42.499996 -1.8577339e-06 0.786553 0.59609
58.000008 -42.499996 -1.8577339e-06 0.835457 0.410191
58.000008 -36.749996 -1.6063933e-06 0.865295 0.410191
58.000008 -42.499996 5.999999 0.835457 0.441326
58.000008 -36.749996 -1.6063933e-06 0.776175 0.679227
69.9 -36.749996 -1.6063933e-06 0.776175 0.740978
58.000008 -36.749996 5.9999995 0.745042 0.679229
58.000008 -36.749996 5.9999995 0.865295 0.441326
86.4 -36.749996 5.9999995 0.745042 0.826601
58.000008 -36.749996 5.9999995 0.613594 0.14736
23.900002 -31.449995 5.9999995 0.641097 0.324296
25.400002 -39.1 5.999999 0.601399 0.316513
5.000003 -34.35 5.9999995 0.626048 0.422363
23.900002 -31.449995 5.9999995 0.869257 0.1033
5.000003 -31.449995 5.9999995 0.869257 0.005225
23.900002 -31.449995 -1.374723e-06 0.90039 0.103298
5.000003 -31.449995 -1.374723e-06 0.90039 0.005223
5.000003 -31.449995 -1.374723e-06 0.892999 0.589608
5.000003 -31.449995 5.9999995 0.892999 0.558472
5.000003 -34.35 5.9999995 0.908048 0.558472
5.000003 -34.35 5.9999995 0.867053 0.558547
0 -34.35 5.9999995 0.892999 0.558579
5.000003 -35.849995 -1.567053e-06 0.867053 0.589576
5.000003 -35.849995 -1.567053e-06 0.915831 0.589608
23.900002 -31.449995 -1.374723e-06 0.205645 0.710273
5.000003 -31.449995 -1.374723e-06 0.205645 0.80834
5.000003 -35.849995 -1.567053e-06 0.182813 0.80834
23.900002 -39.1 -1.7091152e-06 0.165948 0.710273
23.900002 -31.449995 5.9999995 0.837215 0.589608
23.900002 -31.449995 -1.374723e-06 0.816391 0.589608
23.900002 -39.1 -1.7091152e-06 0.816391 0.54991
0 -35.849995 -1.567053e-06 0.892999 0.589608
0 -44.5 -1.9451568e-06 0.137926 0.834284
0 -35.849995 -1.567053e-06 0.182813 0.834284
23.900002 -44.5 -1.9451568e-06 0.137926 0.710273
23.900002 -39.1 5.999999 0.837215 0.54991
23.900002 -39.1 -1.7091152e-06 0.865295 0.442282
25.400002 -39.1 5.999999 0.865295 0.410191
23.900002 -39.1 5.999999 0.872846 0.412079
23.900002 -39.1 -1.7091152e-06 0.654252 0.930361
23.900002 -44.5 -1.9451568e-06 0.654252 0.902339
25.400002 -39.1 5.999999 0.669289 0.930361
25.400002 -44.5 5.999999 0.669289 0.902339
23.900002 -44.5 -1.9451568e-06 0.23092 0.572385
0 -44.5 -1.9451568e-06 0.23092 0.448363
23.900002 -39.1 5.999999 0.601399 0.324296
0 -44.500004 48.199997 0.480988 0.448359
13.950002 -44.500004 49.499996 0.487733 0.520748
21.100002 -44.500004 49.499996 0.613665 0.448307
13.994401 -36.4543 49.5 0.641077 0.490058
13.994401 -36.0458 49.5 0.641077 0.492178
13.950002 -44.500004 49.499996 0.641249 0.448307
13.994401 -22.2043 49.5 0.641077 0.564004
21.100002 -2.1637138e-06 49.5 0.613665 0.679227
13.994401 -36.0458 49.5 0.829993 0.448399
13.994401 -36.4543 49.5 0.832113 0.448353
14.000002 -36.25 29.999998 0.833256 0.549541
13.950002 -36.860302 49.5 0.834219 0.448307
13.950002 -36.860302 49.5 0.641249 0.487951
13.950002 -35.6397 49.5 0.827886 0.448445
13.950002 -35.6397 49.5 0.641249 0.494285
13.950002 -22.610302 49.5 0.641249 0.561897
13.994401 -21.7958 49.5 0.82257 0.004576
13.994401 -22.2043 49.5 0.82469 0.00453
14.000002 -22.000002 29.999998 0.825833 0.105718
13.950002 -22.610302 49.5 0.826795 0.004484
13.994401 -21.7958 49.5 0.641077 0.566124
13.497602 -23.875 29.999998 0.835556 0.105507
13.212902 -24.298702 49.4313 0.835556 0.00465
13.212902 -24.298702 49.4313 0.643854 0.553136
13.497602 -34.374996 29.999998 0.823524 0.549754
13.212902 -33.9513 49.4313 0.819128 0.448993
13.212902 -33.9513 49.4313 0.643854 0.503046
12.125002 -25.2476 29.999998 0.845147 0.308355
13.212902 -24.298702 49.4313 0.837994 0.20769
11.7606 -25.4323 49.295998 0.845566 0.208203
13.497602 -23.875 29.999998 0.837994 0.308555
11.7606 -25.4323 49.295998 0.648987 0.547253
13.497602 -23.875 29.999998 0.575316 0.555334
7.002402 -23.875 29.999998 0.600373 0.555334
6.500002 -22.000002 29.999998 0.602311 0.565064
12.125002 -25.2476 29.999998 0.580611 0.548212
14.000002 -22.000002 29.999998 0.573378 0.565064
10.250002 -25.75 29.999998 0.854887 0.308177
10.250002 -25.75 29.999998 0.587844 0.545605
8.375004 -25.2476 29.999998 0.595078 0.548212
9.943802 -25.7375 49.1267 0.855012 0.208921
9.943802 -25.7375 49.1267 0.655408 0.545669
11.7606 -32.817703 49.295998 0.648987 0.508929
8.375004 -25.2476 29.999998 0.864604 0.308069
8.200903 -25.140701 48.9642 0.864054 0.209673
7.002402 -23.875 29.999998 0.871695 0.30806
6.952502 -23.785799 48.8479 0.66598 0.555797
6.952502 -23.785799 48.8479 0.870509 0.210276
8.200903 -25.140701 48.9642 0.661568 0.548766
6.952502 -34.464203 48.8479 0.66598 0.500385
8.200903 -33.109303 48.9642 0.661568 0.507416
9.943802 -32.512505 49.1267 0.655408 0.510513
12.125002 -33.0024 29.999998 0.848888 0.448381
11.7606 -32.817703 49.295998 0.850513 0.548516
13.212902 -33.9513 49.4313 0.842979 0.549078
10.250002 -32.5 29.999998 0.858615 0.448461
9.943802 -32.512505 49.1267 0.859941 0.547695
8.375004 -33.0024 29.999998 0.868347 0.448433
8.200903 -33.109303 48.9642 0.86899 0.546813
7.002402 -34.374996 29.999998 0.875476 0.448307
6.952502 -34.464203 48.8479 0.875476 0.546083
8.375004 -33.0024 29.999998 0.595078 0.50797
12.125002 -33.0024 29.999998 0.580611 0.50797
13.497602 -34.374996 29.999998 0.575316 0.500848
10.250002 -32.5 29.999998 0.587844 0.510577
7.002402 -34.374996 29.999998 0.600373 0.500848
12.125002 -33.0024 29.999998 0.816391 0.54991
14.000002 -36.25 29.999998 0.573378 0.491118
6.500002 -36.25 29.999998 0.602311 0.491118
13.497602 -38.125 29.999998 0.842979 0.54933
13.497602 -38.125 29.999998 0.575316 0.481388
6.500002 -36.250004 48.8057 0.667579 0.491118
6.952502 -38.0358 48.8479 0.66598 0.481851
7.002402 -38.125 29.999998 0.600373 0.481388
12.125002 -39.4976 29.999998 0.84271 0.105887
13.497602 -38.125 29.999998 0.835556 0.106087
13.212902 -38.548706 49.4313 0.835556 0.005223
13.212902 -38.548706 49.4313 0.842979 0.448473
12.125002 -39.4976 29.999998 0.580611 0.474265
13.212902 -38.548706 49.4313 0.643854 0.479189
11.7606 -39.682304 49.295998 0.843128 0.005735
11.7606 -39.682304 49.295998 0.648987 0.473307
10.250002 -40 29.999998 0.85245 0.105709
10.250002 -40 29.999998 0.587844 0.471658
8.375004 -39.4976 29.999998 0.595078 0.474265
8.200903 -39.3907 48.9642 0.861617 0.007205
7.002402 -38.125 29.999998 0.869257 0.105592
8.375004 -39.4976 29.999998 0.862167 0.105601
6.952502 -38.0358 48.8479 0.868072 0.007808
9.943802 -39.9875 49.1267 0.852575 0.006453
9.943802 -39.9875 49.1267 0.655408 0.471723
8.200903 -39.3907 48.9642 0.661568 0.47482
0 -44.500004 48.199997 0.690553 0.448307
6.500002 -22.000002 48.8057 0.667579 0.565064
6.952502 -20.214201 48.8479 0.66598 0.574331
0 -2.106889e-06 48.2 0.690553 0.679227
6.500002 -7.749999 48.8057 0.667579 0.639011
7.002402 -20.125 30 0.600373 0.574794
8.375004 -18.752401 30 0.868337 0.696987
7.002402 -20.125 30 0.875465 0.696861
8.200903 -18.8594 48.9642 0.86898 0.795367
6.952502 -20.214201 48.8479 0.875465 0.794637
13.497602 -20.125 30 0.575316 0.574794
8.375004 -18.752401 30 0.595078 0.581917
13.950002 -21.389702 49.5 0.820463 0.004622
13.497602 -20.125 30 0.816101 0.105931
13.212902 -19.7013 49.4313 0.811705 0.00517
12.125002 -18.752401 30 0.808968 0.106087
12.125002 -18.752401 30 0.580611 0.581917
13.950002 -21.389702 49.5 0.641249 0.568231
13.950002 -8.360302 49.5 0.641249 0.635844
13.212902 -10.0487 49.4313 0.643854 0.627082
13.212902 -19.7013 49.4313 0.643854 0.576993
13.994401 -7.954201 49.5 0.641077 0.637951
13.994401 -7.954201 49.5 0.824689 0.106133
13.950002 -8.360302 49.5 0.826795 0.106087
14.000002 -7.7499986 30 0.825833 0.207322
13.497602 -9.625 30 0.835556 0.20711
13.212902 -10.0487 49.4313 0.835556 0.106253
12.125002 -10.997598 30 0.845147 0.409605
13.212902 -10.0487 49.4313 0.837994 0.308941
11.7606 -11.182299 49.295998 0.845566 0.309453
13.497602 -9.625 30 0.837994 0.409805
11.7606 -11.182299 49.295998 0.648987 0.6212
13.497602 -9.625 30 0.575316 0.629281
7.002402 -9.625 30 0.600373 0.629281
6.500002 -7.7499986 30 0.602311 0.639011
12.125002 -10.997598 30 0.580611 0.622158
14.000002 -7.7499986 30 0.573378 0.639011
10.250002 -11.499998 30 0.854887 0.409427
10.250002 -11.499998 30 0.587844 0.619551
8.375004 -10.997598 30 0.595078 0.622158
9.943802 -11.487501 49.1267 0.855012 0.310171
11.7606 -18.567701 49.295998 0.648987 0.582875
9.943802 -11.487501 49.1267 0.655408 0.619616
8.375004 -10.997598 30 0.864604 0.409319
8.200903 -10.890601 48.9642 0.864054 0.310923
7.002402 -9.625 30 0.871695 0.40931
6.952502 -9.535799 48.8479 0.66598 0.629744
6.952502 -9.535799 48.8479 0.870509 0.311526
8.200903 -10.890601 48.9642 0.661568 0.622713
8.200903 -18.8594 48.9642 0.661568 0.581361
9.943802 -18.2625 49.1267 0.655408 0.584459
12.125002 -18.752401 30 0.848877 0.696935
11.7606 -18.567701 49.295998 0.850502 0.79707
13.212902 -19.7013 49.4313 0.842969 0.797632
10.250002 -18.250002 30 0.858605 0.697015
9.943802 -18.2625 49.1267 0.859931 0.796249
10.250002 -18.250002 30 0.587844 0.584524
6.952502 -5.964199 48.8479 0.66598 0.648277
7.002402 -5.8750005 30 0.600373 0.64874
7.002402 -5.8750005 30 0.875465 0.59609
6.952502 -5.964199 48.8479 0.875465 0.693866
8.200903 -4.6094 48.9642 0.86898 0.694596
8.200903 -4.6094 48.9642 0.661568 0.655308
0 -44.500004 48.199997 0 0.710273
13.950002 -2.1637138e-06 49.5 0.641249 0.679227
8.375004 -4.5023985 30 0.868337 0.596217
9.943802 -4.0125012 49.1267 0.859931 0.695478
9.943802 -4.0125012 49.1267 0.655408 0.658405
10.250002 -3.9999983 30 0.858605 0.596244
8.375004 -4.5023985 30 0.595078 0.655863
12.125002 -4.5023985 30 0.580611 0.655863
13.497602 -5.8750005 30 0.575316 0.64874
10.250002 -3.9999983 30 0.587844 0.65847
11.7606 -4.3176994 49.295998 0.850502 0.696299
11.7606 -4.3176994 49.295998 0.648987 0.656821
12.125002 -4.5023985 30 0.848877 0.596165
13.212902 -5.4513016 49.4313 0.842969 0.696861
13.212902 -5.4513016 49.4313 0.811705 0.106773
13.497602 -5.8750005 30 0.816101 0.207534
12.125002 -4.5023985 30 0.808968 0.20769
13.950002 -7.1397004 49.5 0.820463 0.106225
13.212902 -5.4513016 49.4313 0.643854 0.650939
13.950002 -7.1397004 49.5 0.641249 0.642178
13.994401 -7.5457015 49.5 0.82257 0.106179
13.994401 -7.5457015 49.5 0.641077 0.640071
0 -41.5151 20.999998 0.015489 0.569126
0 -42.515198 41 0.0103 0.672911
0 -44.5 -1.9451568e-06 0 0.460153
0 -30.5 41 0.072649 0.672911
0 -28.2652 41 0.084246 0.672911
0 -30.5 41 0.783937 0.907447
0 -42.515198 41 0.783937 0.845097
0.908401 -42.499996 41 0.78865 0.845176
0 -42.515198 41 0.597176 0.679227
0 -41.5151 35 0.597159 0.710429
0.908401 -42.499996 41 0.592462 0.679229
0 -41.5151 35 0.015489 0.641775
1.000002 -42.499996 41 0.591986 0.679229
1.000002 -41.5 35 0.591969 0.710431
0.9 -41.5 35 0.592488 0.71043
1.000002 -42.499996 41 0.789126 0.845176
1.000002 -30.5 41 0.789126 0.907447
0 -41.5151 20.999998 0.597176 0.783071
0.9 -41.5 20.999998 0.592505 0.783073
1.000002 -41.5 20.999998 0.591986 0.783073
0.9 -41.5 20.999998 0.573386 0.682699
0 -41.5151 20.999998 0.573464 0.686171
0 -41.5 20.999998 0.573386 0.686171
0 -41.5 8.999998 0.015568 0.506856
0 -41.5 20.999998 0.015568 0.569126
0 -41.5 20.999998 0.23092 0.454964
1.000002 -41.5 20.999998 0.23092 0.460153
0.9 -41.5 20.999998 0.23092 0.459634
1.000002 -41.5 20.999998 0.612737 0.811529
0 -41.5 20.999998 0.612737 0.80634
0 -41.5 8.999998 0.675002 0.806336
1.000002 -41.5 35 0.23092 0.454964
1.000002 -41.5 20.999998 0.23092 0.454964
1.000002 -41.5 22.999998 0.23092 0.454964
18.4999 -41.5 8.999998 0.675002 0.902335
18.4999 -41.5 22.999998 0.60236 0.902339
1.000002 -41.5 22.999998 0.60236 0.81153
0 -35.849995 -1.567053e-06 0.044887 0.460153
0 -31.499996 8.999999 0.06746 0.506856
18.4999 -41.5 8.999998 0.948108 0.747891
0 -41.5 8.999998 0.948108 0.676523
0 -31.499996 8.999999 1 0.676523
18.4999 -31.499996 8.999999 1 0.747891
18.4999 -41.5 22.999998 0.60236 0.974988
18.4999 -41.5 8.999998 0.60236 0.902339
18.4999 -40.999996 9.999998 0.604955 0.907529
18.4999 -31.499996 8.999999 0.654252 0.902339
18.4999 -41.5 22.999998 0.80469 0.845097
18.4999 -40.5 22.999998 0.809879 0.845097
1.000002 -41.5 22.999998 0.80469 0.935899
18.4999 -40.5 22.999998 0.607549 0.974988
18.4999 -40.999996 22.499998 0.604955 0.972394
18.4999 -31.799997 9.999999 0.652695 0.907529
18.4999 -31.499996 8.999999 0.871695 0.404556
0 -31.499996 8.999999 0.871695 0.308556
18.4999 -31.499998 22.999998 0.944329 0.404555
18.4999 -31.499998 22.999998 0.654252 0.974988
18.4999 -31.8 22.499998 0.652695 0.972394
18.4999 -32.5 22.999998 0.649063 0.974988
0 -31.499998 22.999998 0.944329 0.308555
18.4999 -32.5 22.999998 0.776175 0.845097
18.4999 -31.499998 22.999998 0.781364 0.845097
1.000002 -31.499998 22.999998 0.781364 0.935899
18.4999 -31.499998 22.999998 0.23092 0.454964
0 -31.499998 22.999998 0.23092 0.454964
1.000002 -31.499998 22.999998 0.23092 0.454964
1.000002 -32.5 22.999998 0.776175 0.935899
18.4999 -32.5 22.999998 0.124955 0.925095
1.000002 -32.5 22.999998 0.124955 0.834284
18.4999 -32.5 24.499998 0.132737 0.925095
18.4999 -32.5 24.499998 0.649063 0.982772
18.4999 -40.5 24.499998 0.607549 0.982772
1.000002 -32.5 22.999998 0.926865 0.893633
1.000002 -31.499998 22.999998 0.932054 0.893633
1.000002 -32.5 24.499998 0.926865 0.901417
1.000002 -31.499998 35 0.932054 0.955903
1.000002 -31.499998 22.999998 0.21535 0.710273
0 -31.499998 22.999998 0.220539 0.710273
1.000002 -31.499998 35 0.215352 0.772531
1.000002 -32.5 24.499998 0.132737 0.834284
18.4999 -40.5 24.499998 0.469559 0.89671
18.4999 -32.5 24.499998 0.511073 0.89671
1.000002 -40.5 24.499998 0.469559 0.987513
1.000002 -32.5 24.499998 0.511073 0.987513
18.4999 -40.5 24.499998 0.111558 0.925094
1.000002 -40.5 24.499998 0.111558 0.834284
18.4999 -40.5 22.999998 0.119342 0.925093
1.000002 -41.5 35 0.880162 0.955903
1.000002 -40.5 24.499998 0.885351 0.901417
1.000002 -41.5 22.999998 0.880162 0.893633
1.000002 -40.5 22.999998 0.885351 0.893633
1.000002 -40.5 22.999998 0.119342 0.834284
1.000002 -40.5 22.999998 0.809879 0.935899
0 -31.499998 35 0.220542 0.772531
0 -30.5 41 0.220539 0.803765
1.000002 -30.5 41 0.21535 0.803766
1.000002 -30.5 41 0.937243 0.987039
1.000002 -42.499996 41 0.874972 0.987039
0 -27.2651 35 0.089436 0.641775
0 -31.499998 35 0.06746 0.641775
0 -31.499998 22.999998 0.06746 0.579505
0 -27.265099 20.999998 0.089436 0.569126
0.9 -27.250002 35 0.582512 0.710429
0.916701 -28.2499 41 0.582455 0.679227
0 -27.2651 35 0.587183 0.710429
0 -28.2652 41 0.587212 0.679227
0 -27.265099 20.999998 0.587171 0.783071
0 -16.263502 41 0.949158 0.549077
0 -28.2652 41 0.948118 0.486807
0.916701 -28.2499 41 0.952876 0.486807
0.715803 -16.2515 41 0.952872 0.549078
0.715803 -16.2515 41 0.293184 0.990116
0.916701 -28.2499 41 0.23092 0.990116
0.9 -27.25 20.999998 0.582501 0.783071
0.715803 -16.2515 41 0.574066 0.77272
0 -27.265099 20.999998 0.573464 0.689643
0 -27.25 20.999998 0.573386 0.689643
0.9 -27.25 20.999998 0.573386 0.686171
0 -27.25 20.999998 0.089514 0.569126
0 -27.25 20.999998 0.71391 0.826605
0.883304 -11.999999 23 0.60236 0.897744
3 0 1 2
3 3 0 4
3 0 2 4
3 5 6 7
3 5 8 6
3 7 9 5
3 1 10 2
3 11 12 13
3 14 15 16
3 16 17 14
3 17 16 18
3 19 11 13
3 19 13 20
3 13 21 20
3 22 23 24
3 25 26 27
3 28 29 30
3 29 31 30
3 32 22 24
3 33 32 34
3 32 24 34
3 28 30 35
3 30 36 37
3 30 37 35
3 8 38 6
3 39 40 41
3 42 43 44
3 45 39 41
3 46 14 47
3 14 17 47
3 48 49 50
3 49 51 50
3 52 46 53
3 46 47 53
3 54 46 52
3 55 54 52
3 56 54 57
3 54 55 57
3 58 59 60
3 59 61 60
3 62 55 63
3 55 62 57
3 56 57 64
3 65 57 62
3 66 67 68
3 63 69 62
3 70 65 62
3 71 72 73
3 72 74 73
3 75 66 68
3 76 65 70
3 77 76 70
3 78 79 80
3 79 81 80
3 82 64 83
3 82 56 64
3 83 64 69
3 63 83 69
3 84 85 86
3 87 88 89
3 90 91 83
3 83 91 82
3 35 92 93
3 85 94 86
3 88 95 89
3 96 97 98
3 97 99 98
3 100 101 102
3 36 103 37
3 101 104 102
3 45 105 39
3 105 106 39
3 93 28 35
3 93 107 28
3 93 108 107
3 109 58 60
3 26 110 111
3 26 111 27
3 110 112 111
3 113 107 114
3 107 108 114
3 61 115 60
3 113 114 52
3 116 113 52
3 116 117 113
3 117 118 113
3 119 18 118
3 118 117 119
3 17 18 120
3 18 119 120
3 121 122 123
3 122 124 123
3 121 123 125
3 120 126 17
3 126 120 127
3 128 129 130
3 129 131 130
3 132 133 134
3 135 121 125
3 134 136 132
3 134 137 136
3 128 130 138
3 130 139 138
3 140 141 142
3 137 143 136
3 144 142 145
3 144 140 142
3 146 147 148
3 149 150 151
3 150 152 151
3 153 144 145
3 149 154 150
3 154 155 150
3 156 157 158
3 157 159 158
3 160 161 162
3 163 160 162
3 164 165 166
3 164 167 165
3 166 168 164
3 156 158 169
3 170 171 172
3 171 173 172
3 174 168 166
3 175 176 177
3 178 179 180
3 181 166 182
3 166 165 182
3 179 183 180
3 184 185 169
3 185 156 169
3 169 186 184
3 176 187 177
3 184 188 185
3 184 189 188
3 190 191 192
3 193 194 195
3 196 193 197
3 193 195 197
3 185 198 156
3 198 199 156
3 200 127 201
3 200 202 127
3 202 126 127
3 201 203 200
3 204 205 206
3 205 207 206
3 204 206 208
3 126 202 209
3 210 211 212
3 211 213 212
3 214 215 216
3 217 204 208
3 216 218 214
3 216 219 218
3 210 212 220
3 212 221 220
3 222 223 224
3 219 225 218
3 226 224 227
3 226 222 224
3 228 229 230
3 231 232 233
3 232 234 233
3 235 226 227
3 231 236 232
3 236 237 232
3 238 239 240
3 239 241 240
3 242 243 244
3 238 240 245
3 246 247 248
3 247 249 248
3 250 242 244
3 251 252 245
3 252 238 245
3 245 253 251
3 254 255 256
3 257 254 256
3 258 259 260
3 258 260 261
3 262 263 264
3 258 265 266
3 261 265 258
3 263 267 264
3 251 268 252
3 251 269 268
3 270 271 272
3 272 273 270
3 274 266 275
3 266 265 275
3 261 276 265
3 277 278 279
3 280 281 282
3 276 261 283
3 283 284 276
3 285 286 287
3 286 288 287
3 289 277 279
3 290 280 282
3 291 292 293
3 292 294 293
3 293 294 275
3 294 284 275
3 283 295 284
3 295 275 284
3 295 274 275
3 274 295 296
3 295 297 296
3 298 299 300
3 299 301 300
3 302 297 303
3 304 297 302
3 304 296 297
3 297 203 303
3 203 201 303
3 303 305 302
3 194 306 195
3 303 188 305
3 188 189 305
3 307 308 192
3 191 309 192
3 309 307 192
3 181 182 310
3 310 311 181
3 311 312 302
3 312 311 313
3 311 310 313
3 314 315 310
3 315 313 310
3 316 317 318
3 317 319 318
3 320 321 322
3 323 320 322
3 324 325 314
3 325 315 314
3 326 327 328
3 327 329 328
3 167 312 313
3 167 313 165
3 330 331 332
3 331 333 332
3 312 116 302
3 53 116 52
3 53 302 116
3 302 53 304
3 334 335 336
3 337 338 339
3 338 340 339
3 341 342 343
3 344 337 345
3 337 339 345
3 346 341 343
3 347 348 349
3 350 351 352
3 351 353 352
3 340 354 339
3 355 356 357
3 356 358 357
3 344 345 359
3 345 360 359
3 359 361 344
3 362 363 364
3 360 365 359
3 366 367 368
3 369 370 371
3 370 372 371
3 373 374 375
3 376 373 375
3 377 366 368
3 378 379 380
3 336 380 381
3 379 382 380
3 380 382 381
3 383 362 364
3 336 381 384
3 381 385 384
3 386 387 388
3 389 390 391
3 392 393 394
3 393 395 394
3 396 397 398
3 398 399 396
3 398 400 399
3 401 386 388
3 396 402 397
3 403 404 405
3 406 407 408
3 399 409 396
3 409 410 396
3 411 412 413
3 414 411 413
3 404 415 405
3 407 416 408
3 417 418 419
3 417 419 420
3 420 421 417
3 421 384 417
3 422 423 424
3 422 425 423
3 425 426 423
3 424 423 427
3 424 428 422
3 428 429 422
3 430 431 432
3 431 433 432
3 434 435 436
3 435 437 436
3 438 439 440
3 439 441 440
3 442 443 444
3 443 445 444
3 446 438 447
3 438 440 447
3 441 448 440
3 448 449 440
3 449 447 440
3 446 447 449
3 445 450 444
3 451 452 453
3 449 454 446
3 454 449 448
3 455 448 441
3 454 448 455
3 452 456 453
3 455 457 454
3 458 459 460
3 459 461 460
3 462 463 464
3 465 466 467
3 462 468 463
3 463 469 464
3 463 470 469
3 471 472 473
3 472 474 473
3 455 475 457
3 476 477 478
3 479 480 481
3 480 482 481
3 470 483 469
3 470 484 483
3 485 476 478
3 478 486 485
3 487 488 489
3 488 490 489
3 486 491 485
3 429 428 492
3 429 493 494
3 492 493 429
3 487 489 495
3 496 493 497
3 493 492 497
3 498 499 500
3 499 501 500
3 498 500 502
3 424 503 428
3 504 498 502
3 505 506 507
3 508 424 427
3 509 510 511
3 511 512 509
3 513 514 515
3 516 517 518
3 510 519 511
3 519 520 511
3 521 513 515
3 522 523 524
3 523 525 526
3 523 526 524
3 527 528 529
3 522 524 530
3 530 531 522
3 530 524 526
3 525 532 526
3 532 533 526
3 533 530 526
3 534 535 536
3 535 537 536
3 538 539 540
3 539 541 540
3 540 542 538
3 543 533 532
3 531 533 543
3 531 530 533
3 544 545 546
3 543 547 531
3 543 548 547
3 549 550 551
3 545 552 546
3 553 554 555
3 554 556 555
3 557 558 559
3 560 561 562
3 561 563 562
3 561 549 563
3 560 564 561
3 558 565 559
3 549 551 563
3 566 567 568
3 567 569 568
3 567 570 569
3 563 571 562
3 571 572 562
3 573 574 575
3 497 576 577
3 576 578 577
3 576 579 578
3 574 580 575
3 579 581 578
3 570 582 569
3 542 583 538
3 584 578 508
3 578 584 577
3 508 427 584
3 585 586 409
3 586 410 409
3 587 588 589
3 588 590 589
3 591 592 593
3 592 594 593
3 595 596 597
3 587 589 598
3 599 600 601
3 600 602 601
3 596 603 597
3 400 604 399
3 605 606 607
3 606 608 607
3 598 609 587
3 610 611 598
3 598 611 609
3 612 609 376
3 613 609 612
3 587 609 613
3 614 376 375
3 376 615 612
3 376 616 617
3 614 616 376
3 376 617 615
3 618 619 620
3 614 621 616
3 622 618 620
3 623 347 349
3 616 624 617
3 625 626 17
3 17 627 625
3 126 627 17
3 626 628 17
3 628 629 17
3 630 631 632
3 632 633 630
3 632 634 633
3 630 635 631
3 636 637 638
3 628 639 629
3 640 641 642
3 642 643 640
3 643 642 644
3 637 636 645
3 640 646 641
3 645 647 637
3 639 648 629
3 649 629 650
3 629 651 650
3 648 651 629
3 645 652 647
3 652 653 647
3 653 652 654
3 643 650 651
3 643 655 650
3 655 643 644
3 655 656 650
3 649 650 656
3 656 655 657
3 658 657 655
3 655 644 658
3 657 659 656
3 656 660 649
3 656 659 660
3 661 662 663
3 658 664 657
3 664 665 657
3 666 667 668
3 666 633 667
3 669 670 671
3 633 634 667
3 672 673 674
3 674 673 625
3 670 669 675
3 676 677 672
3 672 674 676
3 678 670 675
3 679 665 664
3 678 675 680
3 676 681 677
3 681 682 677
3 682 683 677
3 684 685 686
3 684 687 685
3 688 689 690
3 691 692 689
3 689 688 691
3 691 693 692
3 693 694 692
3 682 695 683
3 696 697 698
3 696 698 699
3 686 700 684
3 699 701 696
3 701 699 702
3 694 693 703
3 701 660 695
3 659 695 660
3 695 659 683
3 701 704 660
3 704 701 702
3 704 705 660
3 660 705 649
3 705 704 706
3 707 706 704
3 704 702 707
3 706 708 705
3 709 710 711
3 707 712 706
3 712 713 706
3 714 715 716
3 714 700 715
3 717 718 719
3 720 718 721
3 718 717 721
3 722 713 712
3 723 710 720
3 710 723 711
3 720 721 723
3 724 725 726
3 724 727 725
3 727 728 725
3 728 729 725
3 726 730 724
3 726 731 730
3 732 733 734
3 732 735 733
3 736 737 738
3 739 740 737
3 737 736 739
3 739 741 740
3 741 742 740
3 728 743 729
3 743 708 729
3 744 745 743
3 742 741 746
3 705 743 745
3 705 708 743
3 747 748 749
3 747 750 748
3 749 744 747
3 744 751 745
3 751 744 752
3 744 749 752
3 751 753 745
3 745 754 705
3 745 753 754
3 705 754 649
3 649 754 755
3 612 615 756
3 615 757 756
3 758 755 759
3 758 760 755
3 760 761 755
3 754 759 755
3 762 761 763
3 761 760 763
3 764 612 756
3 765 760 758
3 766 767 768
3 768 769 766
3 762 763 770
3 771 772 773
3 774 762 770
3 775 776 777
3 778 774 770
3 778 779 774
3 779 780 774
3 781 782 783
3 784 775 777
3 785 780 779
3 786 787 788
3 789 790 791
3 790 792 791
3 759 780 785
3 781 783 793
3 783 794 793
3 759 785 795
3 795 758 759
3 770 795 778
3 770 758 795
3 796 797 798
3 799 795 785
3 800 801 802
3 765 758 803
3 802 804 800
3 773 805 771
3 804 806 800
3 806 807 800
3 803 808 765
3 808 803 809
3 767 810 768
3 773 811 805
3 810 812 768
3 811 813 805
3 814 807 806
3 815 816 817
3 818 809 815
3 818 808 809
3 819 812 810
3 815 817 818
3 820 786 788
3 799 785 821
3 820 788 822
3 821 823 799
3 821 824 823
3 788 825 822
3 826 789 827
3 789 791 827
3 825 828 822
3 829 824 830
3 824 829 823
3 798 831 832
3 831 833 832
3 834 798 832
3 834 796 798
3 830 835 829
3 830 836 835
3 753 837 754
3 793 838 781
3 793 839 838
3 840 841 753
3 753 751 840
3 841 837 753
3 842 843 844
3 845 840 751
3 845 846 840
3 846 847 840
3 843 848 844
3 841 849 837
3 848 843 850
3 851 847 846
3 850 852 853
3 854 852 855
3 852 854 853
3 856 857 858
3 856 859 857
3 751 752 845
3 126 860 861
3 126 837 860
3 837 862 860
3 850 853 848
3 849 862 837
3 839 863 838
3 839 864 863
3 865 126 209
3 861 866 126
3 866 627 126
3 859 867 857
3 734 859 732
3 734 867 859
3 866 730 627
3 686 868 700
3 700 868 715
3 730 731 627
3 627 674 625
3 865 209 869
3 870 871 872
3 871 873 872
3 869 874 865
3 871 875 873
3 875 876 873
3 252 877 238
3 877 878 238
3 874 296 865
3 874 879 296
3 874 268 879
3 865 296 304
3 880 881 882
3 863 883 838
3 273 884 270
3 884 885 270
3 268 269 879
3 886 887 888
3 887 889 888
3 890 891 892
3 891 893 892
3 883 894 838
3 838 895 781
3 896 897 898
3 897 899 898
3 900 882 901
3 900 902 882
3 900 903 904
3 901 903 900
3 905 906 907
3 908 909 910
3 906 911 907
3 881 901 882
3 909 912 910
3 913 334 336
3 914 915 913
3 913 384 914
3 913 336 384
3 915 888 913
3 384 421 914
3 420 916 421
3 917 918 919
3 918 920 919
3 921 922 923
3 924 925 926
3 927 921 923
3 928 929 930
3 931 928 930
3 932 933 934
3 925 935 926
3 931 930 936
3 930 937 936
3 936 938 931
3 939 932 934
3 940 941 942
3 943 944 945
3 944 946 945
3 947 948 895
3 914 949 915
3 915 886 888
3 948 950 895
3 950 951 895
3 895 951 781
3 952 953 954
3 952 955 953
3 952 956 957
3 954 956 952
3 958 959 960
3 959 961 960
3 955 962 953
3 958 960 963
3 964 965 954
3 954 965 956
3 966 967 968
3 967 969 968
3 957 956 970
3 969 971 968
3 971 969 972
3 973 965 964
3 960 974 963
3 974 975 963
3 973 964 976
3 977 978 979
3 977 980 978
3 976 981 973
3 982 983 984
3 982 985 983
3 984 986 982
3 979 987 977
3 988 989 985
3 985 989 983
3 987 979 990
3 991 981 992
3 981 976 992
3 993 987 990
3 993 990 994
3 994 995 993
3 984 983 996
3 995 994 997
3 996 998 999
3 1000 998 991
3 998 1000 999
3 1001 991 992
3 1001 1000 991
3 1002 1003 1004
3 1002 1005 1003
3 1005 1006 1003
3 1007 1008 1006
3 1006 1005 1007
3 1007 1009 1008
3 1009 1010 1008
3 1011 1012 1013
3 1011 1014 1012
3 1013 1015 1011
3 975 974 1016
3 1015 1013 1017
3 999 1015 1018
3 1018 1015 1017
3 961 1019 960
3 1018 1017 1020
3 1021 1018 1022
3 1018 1023 1022
3 1021 999 1018
3 1020 1023 1018
3 1024 1025 1026
3 1019 961 1027
3 1020 1028 1023
3 1029 962 955
3 1024 1026 1030
3 1031 1029 955
3 1030 1032 1024
3 1033 1034 1028
3 1028 1034 1023
3 1035 1036 1037
3 1036 1035 1038
3 1037 1039 1035
3 1037 1032 1039
3 1032 1030 1039
3 1040 1031 955
3 1041 1040 955
3 1041 955 1042
3 1022 1041 1042
3 1021 1022 1042
3 1043 999 1021
3 1021 1042 1043
3 1043 996 999
3 1043 984 996
3 1043 1044 984
3 1043 1042 1045
3 1043 1046 1044
3 1045 1046 1043
3 1044 1047 984
3 984 1047 986
3 1048 1049 1050
3 1049 1051 1050
3 1052 1047 1053
3 1047 1052 986
3 966 968 1054
3 968 1055 1054
3 1056 1055 1057
3 1055 1056 1054
3 1053 1058 1052
3 1059 1060 970
3 1061 1059 1062
3 1061 1060 1059
3 970 1063 957
3 970 1060 1063
3 1064 1065 1066
3 1065 1067 1066
3 1067 1065 1068
3 1069 1070 1071
3 1069 1072 1070
3 1062 1073 1061
3 1074 1075 1076
3 1074 1077 1075
3 1076 1078 1074
3 1071 1079 1069
3 1080 1081 1077
3 1077 1081 1075
3 1079 1071 1082
3 1062 1083 1073
3 1083 1084 1073
3 1085 1079 1082
3 1085 1082 1086
3 1086 1087 1085
3 1076 1075 1088
3 1087 1086 1089
3 1088 1090 1044
3 1090 1091 1044
3 1091 1090 1084
3 1083 1092 1084
3 1092 1091 1084
3 1093 1094 1095
3 1093 1096 1094
3 1096 1097 1094
3 1048 1050 1097
3 1097 1096 1048
3 1053 1098 1058
3 1044 1046 1088
3 1046 1076 1088
3 1046 1099 1076
3 1045 1099 1046
3 1099 1100 1076
3 1076 1100 1078
3 1101 1102 1103
3 1104 1099 1045
3 496 497 577
3 496 577 1105
3 1104 1045 1106
3 1107 1103 1108
3 1107 1101 1103
3 1109 1104 1106
3 1108 1110 1107
3 1111 1112 1113
3 1111 1114 1112
3 1113 1100 1111
3 1110 1108 1115
3 1116 1109 1106
3 1117 1110 1115
3 1117 1115 1118
3 1119 1120 1121
3 1066 1120 1122
3 1120 1119 1122
3 1100 1113 1078
3 1106 1123 1116
3 1106 1124 1123
3 1125 1066 1122
3 1126 1124 1106
3 1125 1064 1066
3 957 1063 1126
3 1126 1106 957
3 1127 1128 1105
3 1105 1129 1127
3 1130 1131 1105
3 1131 496 1105
3 1105 1128 1130
3 1132 1133 1134
3 1135 1136 1137
3 1127 1138 1128
3 1139 1137 1140
3 1137 1141 1140
3 1142 1143 1134
3 1143 1132 1134
3 1136 1141 1137
3 1141 1136 1144
3 1145 1146 1141
3 1146 1140 1141
3 1145 1141 1144
3 1147 1148 1149
3 1129 1150 1127
3 1150 1151 1127
3 1152 1153 1154
3 1155 1156 1157
3 1158 1159 1160
3 1157 1161 1155
3 1161 1162 1155
3 1162 1163 1155
3 1129 1164 1150
3 1164 426 1150
3 426 1165 1150
3 1166 1167 1168
3 1169 1166 1168
3 1170 1171 1172
3 1171 1173 1172
3 1174 1175 1176
3 1177 1170 1178
3 1170 1172 1178
3 1173 1179 1172
3 1178 1172 1179
3 1180 1181 1182
3 1179 1173 1183
3 1183 1184 1179
3 1184 1178 1179
3 1177 1178 1185
3 1185 1178 1184
3 1183 1185 1184
3 1181 1186 1182
3 1187 1188 1189
3 1190 1191 1192
3 1193 1187 1189
3 1194 1195 1196
3 1197 1198 1185
3 1185 1198 1177
3 1199 1200 1201
3 1201 1200 1202
3 1203 1204 1205
3 1195 1206 1196
3 1207 1208 1209
3 1208 1210 1209
3 1211 1212 1213
3 1202 1214 1215
3 1214 1216 1215
3 1216 1217 1215
3 1215 1201 1202
3 1212 1218 1213
3 1175 1219 1176
3 1220 1221 1205
3 1221 1222 1205
3 1202 1223 1214
3 1204 1220 1205
3 1223 1224 1214
3 1225 1226 1227
3 1225 1131 1226
3 1131 1130 1226
3 1227 1228 1225
3 1228 1227 1165
3 1229 1230 1231
3 1230 1232 1231
3 1229 1231 1233
3 1234 1235 1236
3 1237 1234 1236
3 1238 1239 464
3 1240 1229 1233
3 469 1238 464
3 1241 487 495
3 1242 1243 1244
3 425 1228 1165
3 425 1245 1228
3 1165 426 425
3 444 1246 442
3 680 662 678
3 662 680 663
3 528 1247 529
